<?xml version="1.0" encoding="UTF-8" standalone="no"?>
<!-- Created with Inkscape (http://www.inkscape.org/) -->

<svg
   xmlns:dc="http://purl.org/dc/elements/1.1/"
   xmlns:cc="http://creativecommons.org/ns#"
   xmlns:rdf="http://www.w3.org/1999/02/22-rdf-syntax-ns#"
   xmlns:svg="http://www.w3.org/2000/svg"
   xmlns="http://www.w3.org/2000/svg"
   xmlns:xlink="http://www.w3.org/1999/xlink"
   xmlns:sodipodi="http://sodipodi.sourceforge.net/DTD/sodipodi-0.dtd"
   xmlns:inkscape="http://www.inkscape.org/namespaces/inkscape"
   id="svg2"
   version="1.1"
   inkscape:version="0.48.1 r9760"
   width="686.56"
   height="892.71997"
   sodipodi:docname="chinawall.svg">
  <metadata
     id="metadata8">
    <rdf:RDF>
      <cc:Work
         rdf:about="">
        <dc:format>image/svg+xml</dc:format>
        <dc:type
           rdf:resource="http://purl.org/dc/dcmitype/StillImage" />
        <dc:title />
      </cc:Work>
    </rdf:RDF>
  </metadata>
  <defs
     id="defs6">
    <linearGradient
       id="linearGradient3721">
      <stop
         style="stop-color:#2b2200;stop-opacity:1;"
         offset="0"
         id="stop3723" />
      <stop
         style="stop-color:#2b2200;stop-opacity:0;"
         offset="1"
         id="stop3725" />
    </linearGradient>
    <linearGradient
       id="linearGradient3452">
      <stop
         style="stop-color:#6c6753;stop-opacity:1"
         offset="0"
         id="stop3454" />
      <stop
         style="stop-color:#445500;stop-opacity:1"
         offset="1"
         id="stop3456" />
    </linearGradient>
    <linearGradient
       inkscape:collect="always"
       id="linearGradient3444">
      <stop
         style="stop-color:#1c241f;stop-opacity:1;"
         offset="0"
         id="stop3446" />
      <stop
         style="stop-color:#484537;stop-opacity:1"
         offset="1"
         id="stop3448" />
    </linearGradient>
    <linearGradient
       id="linearGradient3428">
      <stop
         style="stop-color:#445016;stop-opacity:1"
         offset="0"
         id="stop3430" />
      <stop
         style="stop-color:#6c6753;stop-opacity:1"
         offset="1"
         id="stop3432" />
    </linearGradient>
    <linearGradient
       id="linearGradient3420">
      <stop
         style="stop-color:#484537;stop-opacity:1"
         offset="0"
         id="stop3422" />
      <stop
         style="stop-color:#8a916f;stop-opacity:1"
         offset="1"
         id="stop3424" />
    </linearGradient>
    <linearGradient
       id="linearGradient3230">
      <stop
         style="stop-color:#d7d7ff;stop-opacity:1"
         offset="0"
         id="stop3232" />
      <stop
         id="stop3240"
         offset="0.67455381"
         style="stop-color:#d8d8ff;stop-opacity:1" />
      <stop
         id="stop3238"
         offset="0.78341228"
         style="stop-color:#ffffff;stop-opacity:1;" />
      <stop
         style="stop-color:#d5d5ff;stop-opacity:1"
         offset="1"
         id="stop3234" />
    </linearGradient>
    <linearGradient
       id="linearGradient3144">
      <stop
         style="stop-color:#e0c8a3;stop-opacity:1;"
         offset="0"
         id="stop3146" />
      <stop
         style="stop-color:#c5b299;stop-opacity:1"
         offset="1"
         id="stop3148" />
    </linearGradient>
    <linearGradient
       id="linearGradient3007">
      <stop
         id="stop3011"
         offset="0"
         style="stop-color:#241f1c;stop-opacity:1" />
      <stop
         id="stop3009"
         offset="1"
         style="stop-color:#6c5d53;stop-opacity:1;" />
    </linearGradient>
    <linearGradient
       id="linearGradient3800">
      <stop
         id="stop3802"
         offset="0"
         style="stop-color:#ddd0be;stop-opacity:1;" />
      <stop
         id="stop3804"
         offset="1"
         style="stop-color:#d7c8b3;stop-opacity:1" />
    </linearGradient>
    <linearGradient
       id="linearGradient3767">
      <stop
         style="stop-color:#ddd0be;stop-opacity:1;"
         offset="0"
         id="stop3769" />
      <stop
         style="stop-color:#e0c79e;stop-opacity:1"
         offset="1"
         id="stop3771" />
    </linearGradient>
    <linearGradient
       inkscape:collect="always"
       xlink:href="#linearGradient3767"
       id="linearGradient3540"
       gradientUnits="userSpaceOnUse"
       x1="2256.0325"
       y1="377.14642"
       x2="2097.082"
       y2="342.94327" />
    <linearGradient
       inkscape:collect="always"
       xlink:href="#linearGradient3767"
       id="linearGradient3542"
       gradientUnits="userSpaceOnUse"
       x1="2075.9377"
       y1="339.96436"
       x2="2021.7748"
       y2="313.24313" />
    <radialGradient
       inkscape:collect="always"
       xlink:href="#linearGradient3007"
       id="radialGradient3544"
       gradientUnits="userSpaceOnUse"
       gradientTransform="matrix(1.4729018,0,0,2.7875748,-1003.3091,-657.74037)"
       cx="2121.6006"
       cy="371.81711"
       fx="2121.6006"
       fy="371.81711"
       r="14.80314" />
    <linearGradient
       inkscape:collect="always"
       xlink:href="#linearGradient3144"
       id="linearGradient3546"
       gradientUnits="userSpaceOnUse"
       gradientTransform="matrix(-0.63963804,0,0,0.63963804,3400.0121,-17.422316)"
       x1="2066.4741"
       y1="127.14976"
       x2="2093.3438"
       y2="173.76024" />
    <linearGradient
       inkscape:collect="always"
       xlink:href="#linearGradient3144"
       id="linearGradient3548"
       gradientUnits="userSpaceOnUse"
       gradientTransform="matrix(-0.63963804,0,0,0.63963804,3391.6968,-16.782678)"
       x1="2013.8318"
       y1="174.30859"
       x2="2127.8904"
       y2="174.30859" />
    <linearGradient
       inkscape:collect="always"
       xlink:href="#linearGradient3767"
       id="linearGradient3552"
       gradientUnits="userSpaceOnUse"
       x1="2256.0325"
       y1="377.14642"
       x2="2097.082"
       y2="342.94327" />
    <linearGradient
       inkscape:collect="always"
       xlink:href="#linearGradient3767"
       id="linearGradient3554"
       gradientUnits="userSpaceOnUse"
       x1="2075.9377"
       y1="339.96436"
       x2="2021.7748"
       y2="313.24313" />
    <radialGradient
       inkscape:collect="always"
       xlink:href="#linearGradient3007"
       id="radialGradient3556"
       gradientUnits="userSpaceOnUse"
       gradientTransform="matrix(1.4729018,0,0,2.7875748,-1003.3091,-657.74037)"
       cx="2121.6006"
       cy="371.81711"
       fx="2121.6006"
       fy="371.81711"
       r="14.80314" />
    <linearGradient
       inkscape:collect="always"
       xlink:href="#linearGradient3767"
       id="linearGradient3640"
       gradientUnits="userSpaceOnUse"
       gradientTransform="translate(-1775.0325,140.87739)"
       x1="1994.4725"
       y1="392.55951"
       x2="2015.8495"
       y2="631.98169" />
    <radialGradient
       inkscape:collect="always"
       xlink:href="#linearGradient3007"
       id="radialGradient3643"
       gradientUnits="userSpaceOnUse"
       gradientTransform="matrix(1.4729018,0,0,2.7875748,-2778.3416,-516.86297)"
       cx="2121.6006"
       cy="371.81711"
       fx="2121.6006"
       fy="371.81711"
       r="14.80314" />
    <linearGradient
       inkscape:collect="always"
       xlink:href="#linearGradient3800"
       id="linearGradient3647"
       gradientUnits="userSpaceOnUse"
       gradientTransform="translate(-1849.265,148.70358)"
       x1="2097.082"
       y1="509.22101"
       x2="2079.9805"
       y2="382.07416" />
    <linearGradient
       inkscape:collect="always"
       xlink:href="#linearGradient3767"
       id="linearGradient3650"
       gradientUnits="userSpaceOnUse"
       gradientTransform="translate(-1775.0325,140.87739)"
       x1="2075.9377"
       y1="339.96436"
       x2="2021.7748"
       y2="313.24313" />
    <linearGradient
       inkscape:collect="always"
       xlink:href="#linearGradient3767"
       id="linearGradient3654"
       gradientUnits="userSpaceOnUse"
       gradientTransform="translate(-1775.0325,140.87739)"
       x1="2256.0325"
       y1="377.14642"
       x2="2097.082"
       y2="342.94327" />
    <linearGradient
       inkscape:collect="always"
       xlink:href="#linearGradient3428"
       id="linearGradient3657"
       gradientUnits="userSpaceOnUse"
       gradientTransform="translate(-1775.0325,140.87739)"
       x1="1543.9335"
       y1="827.20312"
       x2="2436.7778"
       y2="459.61795" />
    <radialGradient
       inkscape:collect="always"
       xlink:href="#linearGradient3007"
       id="radialGradient3667"
       gradientUnits="userSpaceOnUse"
       gradientTransform="matrix(0.5978913,0,0,1.1315532,-1062.4988,-71.956754)"
       cx="2121.6006"
       cy="371.81711"
       fx="2121.6006"
       fy="371.81711"
       r="14.80314" />
    <linearGradient
       inkscape:collect="always"
       xlink:href="#linearGradient3767"
       id="linearGradient3670"
       gradientUnits="userSpaceOnUse"
       gradientTransform="matrix(0.40592747,0,0,0.40592747,-655.2281,195.03812)"
       x1="2075.9377"
       y1="339.96436"
       x2="2021.7748"
       y2="313.24313" />
    <linearGradient
       inkscape:collect="always"
       xlink:href="#linearGradient3767"
       id="linearGradient3674"
       gradientUnits="userSpaceOnUse"
       gradientTransform="matrix(0.40592747,0,0,0.40592747,-655.2281,195.03812)"
       x1="2256.0325"
       y1="377.14642"
       x2="2097.082"
       y2="342.94327" />
    <linearGradient
       inkscape:collect="always"
       xlink:href="#linearGradient3144"
       id="linearGradient3677"
       gradientUnits="userSpaceOnUse"
       gradientTransform="translate(-1775.0325,140.87739)"
       x1="2013.8318"
       y1="174.30859"
       x2="2127.8904"
       y2="174.30859" />
    <linearGradient
       inkscape:collect="always"
       xlink:href="#linearGradient3144"
       id="linearGradient3681"
       gradientUnits="userSpaceOnUse"
       gradientTransform="translate(-1788.0325,139.87739)"
       x1="2066.4741"
       y1="127.14976"
       x2="2093.3438"
       y2="173.76024" />
    <linearGradient
       inkscape:collect="always"
       xlink:href="#linearGradient3420"
       id="linearGradient3693"
       gradientUnits="userSpaceOnUse"
       gradientTransform="translate(-1775.0325,140.87739)"
       x1="1747.1134"
       y1="351.05545"
       x2="2306.4946"
       y2="431.70706" />
    <linearGradient
       inkscape:collect="always"
       xlink:href="#linearGradient3452"
       id="linearGradient3710"
       gradientUnits="userSpaceOnUse"
       gradientTransform="translate(-1775.0325,140.87739)"
       x1="2052.6589"
       y1="117.62396"
       x2="2812.2639"
       y2="403.00656" />
    <linearGradient
       inkscape:collect="always"
       xlink:href="#linearGradient3444"
       id="linearGradient3713"
       gradientUnits="userSpaceOnUse"
       gradientTransform="translate(-1775.0325,140.87739)"
       x1="2377.6846"
       y1="238.79297"
       x2="2489.5117"
       y2="88.34671" />
    <linearGradient
       inkscape:collect="always"
       xlink:href="#linearGradient3230"
       id="linearGradient3716"
       gradientUnits="userSpaceOnUse"
       gradientTransform="translate(-1775.0325,140.87739)"
       x1="2158.1345"
       y1="745.96442"
       x2="2162.2429"
       y2="-139.65218" />
    <linearGradient
       inkscape:collect="always"
       xlink:href="#linearGradient3721"
       id="linearGradient3727"
       x1="-189.05095"
       y1="1051.8374"
       x2="599.47162"
       y2="607.88635"
       gradientUnits="userSpaceOnUse" />
    <linearGradient
       inkscape:collect="always"
       xlink:href="#linearGradient3721"
       id="linearGradient4499"
       gradientUnits="userSpaceOnUse"
       x1="-189.05095"
       y1="1051.8374"
       x2="599.47162"
       y2="607.88635"
       gradientTransform="matrix(0.57613325,0,0,0.82836977,-138.83589,-156.57843)" />
  </defs>
  <sodipodi:namedview
     pagecolor="#ffffff"
     bordercolor="#666666"
     borderopacity="1"
     objecttolerance="10"
     gridtolerance="10"
     guidetolerance="10"
     inkscape:pageopacity="0"
     inkscape:pageshadow="2"
     inkscape:window-width="1280"
     inkscape:window-height="969"
     id="namedview4"
     showgrid="false"
     inkscape:zoom="0.33288647"
     inkscape:cx="320.24141"
     inkscape:cy="293.7602"
     inkscape:window-x="0"
     inkscape:window-y="26"
     inkscape:window-maximized="1"
     inkscape:current-layer="svg2" />
  <rect
     style="fill:url(#linearGradient3716);fill-opacity:1;stroke:none"
     id="rect3023"
     width="686.54492"
     height="892.72778"
     x="0.0069126482"
     y="-0.0039059906"
     ry="0.56459874" />
  <path
     style="fill:url(#linearGradient3713);fill-opacity:1;stroke:none"
     d="m 686.5613,221.50239 c 0,0 -8.9499,5.48689 -12.5626,9.21875 -8.2816,8.55484 -11.3545,21.48434 -20.1874,29.46876 -19.2201,17.37382 -44.0621,27.88417 -68.2188,37.25 -24.3168,9.42791 -76,18.59375 -76,18.59375 L 591.78,423.0649 686.5613,403.1274 z"
     id="path3415"
     inkscape:connector-curvature="0"
     sodipodi:nodetypes="caaacccc" />
  <path
     style="fill:url(#linearGradient3710);stroke:none"
     d="m 343.6237,213.65864 c -16.4553,-1.76624 -33.2733,-0.99064 -49.625,1.5625 -11.1641,1.74315 -22.063,5.21624 -32.5937,9.3125 -16.1507,6.28237 -30.362,16.93508 -46.5,23.25001 -26.0791,10.20497 -52.6984,22.4741 -80.6875,23.40625 -29.8104,0.99281 -59.374302,-8.96522 -87.406201,-19.15625 -16.5476,-6.01591 -46.8126,-24.46875 -46.8126,-24.46875 l 0,664.59374 c 0,0.15639 0.086,0.30421 0.1876,0.40625 0.1,0.0913 0.2276,0.15625 0.375,0.15625 l 685.437401,0 c 0.1564,0 0.273,-0.0542 0.375,-0.15625 0.1021,-0.10204 0.1876,-0.24986 0.1876,-0.40625 l 0,-545.99999 -2.4063,0.0312 c 0,0 -18.1403,-1.75669 -26.782,0.48929 -13.4961,3.50761 -22.9611,19.75383 -36.9055,19.69821 -15.1996,-0.0606 -28.4703,-11.95166 -40.055,-21.7916 -14.9251,-12.67719 -21.9126,-32.83697 -36.055,-46.3818 -22.0123,-21.0822 -46.8601,-40.20479 -74.5462,-52.95161 -39.3869,-18.13392 -83.0744,-26.96616 -126.1876,-31.59375 z"
     id="path3378"
     inkscape:connector-curvature="0"
     sodipodi:nodetypes="aaaaaacscsscsccaaaaaa" />
  <g
     id="g3354"
     transform="matrix(0.67954159,0,0,0.67954159,-1105.26,177.3215)">
    <g
       id="g3160"
       transform="matrix(-0.16671998,0,0,0.16671998,2390.6365,-4.5943182)">
      <path
         style="fill:url(#linearGradient3540);fill-opacity:1;stroke:none"
         d="m 2246.721,444.69048 c 0,0 -58.5084,3.39339 -87.6456,6.4131 -36.9324,3.82758 -110.3996,14.82619 -110.3996,14.82619 l 27.0293,-146.0881 147.5013,-1.55079 z"
         id="path3162"
         inkscape:connector-curvature="0"
         sodipodi:nodetypes="cacccc" />
      <path
         sodipodi:nodetypes="ccccc"
         inkscape:connector-curvature="0"
         id="path3164"
         d="m 2193.2064,290.60238 -145.5013,2.1377 0.1378,-29.92778 145.3635,-2.13769 z"
         style="fill:#dfc9a5;fill-opacity:1;stroke:none" />
      <path
         style="fill:url(#linearGradient3542);fill-opacity:1;stroke:none"
         d="m 2078.4239,319.53576 c -6.0463,-1.51158 -30.2316,-28.72004 -30.2316,-28.72004 l -25.6969,123.94965 50.4169,78.00664 z"
         id="path3166"
         inkscape:connector-curvature="0"
         sodipodi:nodetypes="ccccc" />
      <path
         style="fill:url(#radialGradient3544);fill-opacity:1;stroke:none"
         d="m 2108.3495,382.99256 27.9179,-0.7755 c 0,0 0.3071,-20.78443 0,-34.12183 -0.1441,-6.25595 -8.4769,-11.63245 -14.7345,-11.63244 -6.2576,1e-5 -14.8358,5.37566 -14.7344,11.63244 0.1968,12.13955 1.551,34.89733 1.551,34.89733 z"
         id="path3168"
         inkscape:connector-curvature="0"
         sodipodi:nodetypes="ccsasc" />
      <path
         style="fill:#dfcaaa;fill-opacity:1;stroke:none"
         d="m 2185.8547,289.34291 26.7899,12.89882 10.9143,-12.88325 -30.7509,-28.79765 z"
         id="path3170"
         inkscape:connector-curvature="0"
         sodipodi:nodetypes="ccccc" />
      <path
         style="fill:#6c5d53;stroke:none"
         d="m 2060.4933,289.93302 23.2648,17.83641 128.7324,-1.55099 -24.0404,-21.71389 -125.6304,0.77549 z"
         id="path3172"
         inkscape:connector-curvature="0" />
      <path
         style="fill:#dfc199;fill-opacity:1;stroke:none"
         d="m 2223.2064,318.60238 -145.5013,2.1377 0.1378,-29.92778 145.3635,-2.13769 z"
         id="path3174"
         inkscape:connector-curvature="0"
         sodipodi:nodetypes="ccccc" />
      <path
         style="fill:#ddcfbb;fill-opacity:1;stroke:none"
         d="m 2046.5776,290.45429 31.5722,30.87055 0.7016,-30.16895 -30.169,-28.76575 z"
         id="path3176"
         inkscape:connector-curvature="0" />
    </g>
    <path
       sodipodi:nodetypes="cacccacc"
       inkscape:connector-curvature="0"
       id="path3178"
       d="m 2111.8887,131.80848 c 0,0 -36.5212,-26.53114 -53.3058,-41.562258 -6.9925,-6.261986 -19.6505,-20.169924 -19.6505,-20.169924 l 0,0 1.403,-13.740589 c 0,0 13.52,12.374949 20.8904,17.791289 15.6369,11.4912 49.2599,31.024402 49.2599,31.024402 z"
       style="fill:url(#linearGradient3546);fill-opacity:1;stroke:none" />
    <path
       style="fill:#c5b299;fill-opacity:1;stroke:none"
       d="m 2034.2904,59.449339 6.3135,-0.350752 17.5376,14.38079 30.5153,20.694312 13.6793,9.470281 -4.2091,3.50751 -50.8588,-28.761589 z"
       id="path3180"
       inkscape:connector-curvature="0" />
    <path
       style="fill:url(#linearGradient3548);fill-opacity:1;stroke:none"
       d="m 2103.5734,132.44811 c 0,0 -36.5212,-26.53113 -53.3058,-41.56225 -6.9925,-6.261986 -19.6504,-20.169924 -19.6504,-20.169924 l 0,0 1.4029,-13.740589 c 0,0 13.52,12.374949 20.8904,17.791289 15.6369,11.4912 49.2599,31.024404 49.2599,31.024404 z"
       id="path3182"
       inkscape:connector-curvature="0"
       sodipodi:nodetypes="cacccacc" />
  </g>
  <path
     style="fill:#454837;stroke:none"
     d="m 318.5925,267.97115 4.875,21.6875 -86.875,74.46875 -6,7.28125 -6.4062,-13.5 c -10.8571,1.55099 -47.4843,-2.14824 -69.7813,4.65625 -56.914402,17.36887 -154.406301,89.59375 -154.406301,89.59375 l 0,326.84374 0,113.15625 c 0,0.15639 0.086,0.30421 0.1876,0.40625 0.1,0.0913 0.2276,0.15625 0.375,0.15625 l 685.437401,0 c 0.3128,0 0.5626,-0.24971 0.5626,-0.5625 l 0,-499.99999 c 0,0 -50.2316,15.69353 -75.1876,11.28125 -89.761,-15.86996 -240.125,-130.84375 -240.125,-130.84375 z"
     id="path3384"
     inkscape:connector-curvature="0"
     sodipodi:nodetypes="cccccaccscssscacc" />
  <path
     style="fill:url(#linearGradient3693);stroke:none"
     d="m 248.9987,367.22115 c -24.2054,-4.15273 -49.3268,3.87006 -72.875,10.84375 -31.0588,9.19793 -56.2127,36.76159 -88.406202,40.34375 -29.690999,3.30371 -87.718799,-18.375 -87.718799,-18.375 l 0,492.12499 c 0,0.31279 0.2498,0.5625 0.5626,0.5625 l 685.437401,0 c 0.3128,0 0.5626,-0.24971 0.5626,-0.5625 l 0,-347.625 c 0,0 -13.9886,-4.62238 -20.3438,-8.25 -21.4665,-12.25337 -38.4161,-31.222 -58.9375,-44.99999 -37.3167,-25.05441 -73.0033,-56.19444 -116.3125,-68.21875 -44.8381,-12.44881 -94.4989,9.92145 -139.5938,-1.5625 -37.4304,-9.53211 -64.306,-47.75009 -102.375,-54.28125 z"
     id="path3405"
     inkscape:connector-curvature="0"
     sodipodi:nodetypes="aaacsssscaaaaa" />
  <g
     id="g3128"
     transform="matrix(0.26064738,0,0,0.26064738,-209.9907,159.93248)">
    <path
       style="fill:url(#linearGradient3552);fill-opacity:1;stroke:none"
       d="m 2246.721,444.69048 c 0,0 -58.5084,3.39339 -87.6456,6.4131 -36.9324,3.82758 -110.3996,14.82619 -110.3996,14.82619 l 27.0293,-146.0881 147.5013,-1.55079 z"
       id="path3112"
       inkscape:connector-curvature="0"
       sodipodi:nodetypes="cacccc" />
    <path
       sodipodi:nodetypes="ccccc"
       inkscape:connector-curvature="0"
       id="path3114"
       d="m 2193.2064,290.60238 -145.5013,2.1377 0.1378,-29.92778 145.3635,-2.13769 z"
       style="fill:#dfc9a5;fill-opacity:1;stroke:none" />
    <path
       style="fill:url(#linearGradient3554);fill-opacity:1;stroke:none"
       d="m 2078.4239,319.53576 c -6.0463,-1.51158 -30.2316,-28.72004 -30.2316,-28.72004 l -25.6969,123.94965 50.4169,78.00664 z"
       id="path3116"
       inkscape:connector-curvature="0"
       sodipodi:nodetypes="ccccc" />
    <path
       style="fill:url(#radialGradient3556);fill-opacity:1;stroke:none"
       d="m 2108.3495,382.99256 27.9179,-0.7755 c 0,0 0.3071,-20.78443 0,-34.12183 -0.1441,-6.25595 -8.4769,-11.63245 -14.7345,-11.63244 -6.2576,1e-5 -14.8358,5.37566 -14.7344,11.63244 0.1968,12.13955 1.551,34.89733 1.551,34.89733 z"
       id="path3118"
       inkscape:connector-curvature="0"
       sodipodi:nodetypes="ccsasc" />
    <path
       style="fill:#dfcaaa;fill-opacity:1;stroke:none"
       d="m 2185.8547,289.34291 26.7899,12.89882 10.9143,-12.88325 -30.7509,-28.79765 z"
       id="path3120"
       inkscape:connector-curvature="0"
       sodipodi:nodetypes="ccccc" />
    <path
       style="fill:#6c5d53;stroke:none"
       d="m 2060.4933,289.93302 23.2648,17.83641 128.7324,-1.55099 -24.0404,-21.71389 -125.6304,0.77549 z"
       id="path3122"
       inkscape:connector-curvature="0" />
    <path
       style="fill:#dfc199;fill-opacity:1;stroke:none"
       d="m 2223.2064,318.60238 -145.5013,2.1377 0.1378,-29.92778 145.3635,-2.13769 z"
       id="path3124"
       inkscape:connector-curvature="0"
       sodipodi:nodetypes="ccccc" />
    <path
       style="fill:#ddcfbb;fill-opacity:1;stroke:none"
       d="m 2046.5776,290.45429 31.5722,30.87055 0.7016,-30.16895 -30.169,-28.76575 z"
       id="path3126"
       inkscape:connector-curvature="0" />
  </g>
  <path
     sodipodi:nodetypes="cacccacc"
     inkscape:connector-curvature="0"
     id="path3156"
     d="m 225.7993,373.18245 c 0,0 57.0966,-41.47834 83.3374,-64.97777 10.9319,-9.78989 30.7212,-31.53334 30.7212,-31.53334 l 0,0 -2.1934,-21.48182 c 0,0 -21.1369,19.3468 -32.6597,27.81462 -24.4465,17.96516 -77.0121,48.50306 -77.0121,48.50306 z"
     style="fill:url(#linearGradient3681);fill-opacity:1;stroke:none" />
  <path
     style="fill:#c5b299;fill-opacity:1;stroke:none"
     d="m 347.1152,260.05732 -9.8704,-0.54836 -27.418,22.4827 -47.7072,32.35317 -21.386,14.80567 6.5804,5.48359 79.5119,-44.96541 z"
     id="path3152"
     inkscape:connector-curvature="0" />
  <path
     style="fill:url(#linearGradient3677);fill-opacity:1;stroke:none"
     d="m 238.7993,374.18245 c 0,0 57.0966,-41.47834 83.3374,-64.97777 10.9319,-9.78989 30.7212,-31.53334 30.7212,-31.53334 l 0,0 -2.1934,-21.48182 c 0,0 -21.1369,19.3468 -32.6597,27.81462 -24.4465,17.96516 -77.0121,48.50306 -77.0121,48.50306 z"
     id="path3110"
     inkscape:connector-curvature="0"
     sodipodi:nodetypes="cacccacc" />
  <path
     sodipodi:nodetypes="cacccc"
     inkscape:connector-curvature="0"
     id="path3064"
     d="m 256.7777,375.5502 c 0,0 -23.7502,1.37748 -35.5778,2.60326 -14.9919,1.55372 -44.8142,6.01835 -44.8142,6.01835 l 10.9719,-59.30117 59.8748,-0.62951 z"
     style="fill:url(#linearGradient3674);fill-opacity:1;stroke:none" />
  <path
     style="fill:#dfc9a5;fill-opacity:1;stroke:none"
     d="m 235.0546,313.00162 -59.0629,0.86775 0.056,-12.14851 59.007,-0.86775 z"
     id="path3066"
     inkscape:connector-curvature="0"
     sodipodi:nodetypes="ccccc" />
  <path
     sodipodi:nodetypes="ccccc"
     inkscape:connector-curvature="0"
     id="path3068"
     d="m 188.4613,324.74646 c -2.4544,-0.61358 -12.2719,-11.65825 -12.2719,-11.65825 l -10.4311,50.31457 12.7106,23.82746 z"
     style="fill:url(#linearGradient3670);fill-opacity:1;stroke:none" />
  <path
     sodipodi:nodetypes="ccsasc"
     inkscape:connector-curvature="0"
     id="path3070"
     d="m 200.6089,350.50533 11.3326,-0.3148 c 0,0 0.1247,-8.43698 0,-13.85099 -0.058,-2.53946 -3.441,-4.72193 -5.9811,-4.72193 -2.5401,0 -6.0223,2.18213 -5.9811,4.72193 0.08,4.92777 0.6296,14.16578 0.6296,14.16578 z"
     style="fill:url(#radialGradient3667);fill-opacity:1;stroke:none" />
  <path
     sodipodi:nodetypes="ccccc"
     inkscape:connector-curvature="0"
     id="path3072"
     d="m 232.0704,312.49036 10.8747,5.23598 4.4304,-5.22966 -12.4826,-11.68976 z"
     style="fill:#dfcaaa;fill-opacity:1;stroke:none" />
  <path
     inkscape:connector-curvature="0"
     id="path3074"
     d="m 181.1827,312.72991 9.4439,7.24029 52.256,-0.62959 -9.7587,-8.81427 -50.9968,0.31479 z"
     style="fill:#6c5d53;stroke:none" />
  <path
     sodipodi:nodetypes="ccccc"
     inkscape:connector-curvature="0"
     id="path3076"
     d="m 247.2324,324.36759 -59.0629,0.86775 0.056,-12.14851 59.007,-0.86775 z"
     style="fill:#dfc199;fill-opacity:1;stroke:none" />
  <path
     inkscape:connector-curvature="0"
     id="path3078"
     d="m 175.534,312.9415 12.816,12.53121 0.2848,-12.24642 -12.2464,-11.6768 z"
     style="fill:#ddcfbb;fill-opacity:1;stroke:none" />
  <path
     sodipodi:nodetypes="ccaccsc"
     inkscape:connector-curvature="0"
     id="path3025"
     d="m 220.2999,395.8104 -1.551,72.89664 c 0,0 32.3708,21.92731 49.6317,31.01984 19.4604,10.25107 60.4887,26.36687 60.4887,26.36687 l 1.551,-58.93771 c 0,0 -63.5765,-28.82966 -92.7773,-41.40637 -7.6564,-3.29759 -17.3431,-29.93927 -17.3431,-29.93927 z"
     style="fill:#e0c79e;fill-opacity:1;stroke:none" />
  <path
     style="fill:#c5b299;fill-opacity:1;stroke:none"
     d="m 260.4746,519.43093 -73.153,-46.67014 c 0,0 -14.3879,-8.77351 -21.7726,-19.71952 -2.704,-4.00806 -1.8713,-8.30741 -2.7462,-12.57396 -3.8434,-18.74266 27.9344,-91.12425 27.9344,-91.12425 l 32.8358,1.19344 c 0,0 -5.9409,14.77109 -3.0322,32.02709 2.9086,17.256 3.6669,36.99691 7.0651,46.93654 9.4169,27.54375 74.9431,30.79548 74.9431,30.79548 z"
     id="path3027"
     inkscape:connector-curvature="0"
     sodipodi:nodetypes="ccssccsscc" />
  <path
     style="fill:#e0c79e;fill-opacity:1;stroke:none"
     d="m 162.2999,430.8104 -3.4686,39.54123 -1.0824,33.35542 c 0,0 26.0989,28.57422 42.6317,38.01984 18.3825,10.50241 60.4887,19.36686 60.4887,19.36686 l 1.551,-58.93771 c 0,0 -74.0676,-20.94245 -95.7125,-49.63175 -4.4482,-5.89583 -4.4079,-21.71389 -4.4079,-21.71389 z"
     id="path3021"
     inkscape:connector-curvature="0"
     sodipodi:nodetypes="cccaccac" />
  <path
     style="fill:url(#linearGradient3657);stroke:none"
     d="m 259.8737,584.34614 -259.875001,167.28125 0,140.53125 c 0,0.31279 0.2498,0.5625 0.5626,0.5625 l 685.437401,0 c 0.3128,0 0.5626,-0.24971 0.5626,-0.5625 l 0,-263.40625 -215.75,-42.84375 -210.9376,-1.5625 z"
     id="path3410"
     inkscape:connector-curvature="0" />
  <path
     style="fill:url(#linearGradient3654);fill-opacity:1;stroke:none"
     d="m 471.6885,585.56787 c 0,0 -58.5084,3.39339 -87.6456,6.4131 -36.9324,3.82758 -110.3996,14.82619 -110.3996,14.82619 l 27.0293,-146.0881 147.5013,-1.55079 z"
     id="path2989"
     inkscape:connector-curvature="0"
     sodipodi:nodetypes="cacccc" />
  <path
     sodipodi:nodetypes="ccccc"
     inkscape:connector-curvature="0"
     id="path3826"
     d="m 418.1739,431.47978 -145.5013,2.1377 0.1378,-29.92778 145.3635,-2.1377 z"
     style="fill:#dfc9a5;fill-opacity:1;stroke:none" />
  <path
     style="fill:url(#linearGradient3650);fill-opacity:1;stroke:none"
     d="m 303.3914,460.41316 c -6.0463,-1.51158 -30.2316,-28.72004 -30.2316,-28.72004 l -25.6969,123.94964 50.4169,-33.25479 z"
     id="path3806"
     inkscape:connector-curvature="0"
     sodipodi:nodetypes="ccccc" />
  <path
     style="fill:url(#linearGradient3647);fill-opacity:1;stroke:none"
     d="m 326.905,479.28365 c 0,0 -33.8811,33.29709 -53.4375,46.56249 -25.5318,17.31862 -53.107,32.40143 -82.3125,42.34375 -11.4768,3.90701 -23.2956,6.6448 -35.2813,8.71875 11.2428,-0.60521 22.4505,-1.53213 33.625,-2.65625 25.5876,-2.57399 51.5617,-5.58743 75.9063,-13.875 21.4381,-7.29809 41.9853,-17.40574 61.5,-29.09375 l 0,-51.99999 z"
     id="path3794"
     inkscape:connector-curvature="0" />
  <path
     style="fill:#c5b299;fill-opacity:1;stroke:none"
     d="m 309.2234,524.88612 c 0,0 -27.2242,23.33789 -42.7539,32.06548 -36.7973,20.67982 -117.5734,47.02936 -117.5734,47.02936 l 19.2392,27.79008 185.9798,-53.44246 19.2393,-57.71786 z"
     id="path3783"
     inkscape:connector-curvature="0"
     sodipodi:nodetypes="caccccc" />
  <path
     style="fill:url(#radialGradient3643);fill-opacity:1;stroke:none"
     d="m 333.317,523.86995 27.9179,-0.77549 c 0,0 0.3071,-20.78443 0,-34.12183 -0.1441,-6.25595 -8.4769,-11.63245 -14.7345,-11.63244 -6.2576,10e-6 -14.8358,5.37566 -14.7344,11.63244 0.1968,12.13955 1.551,34.89732 1.551,34.89732 z"
     id="path3005"
     inkscape:connector-curvature="0"
     sodipodi:nodetypes="ccsasc" />
  <path
     style="fill:url(#linearGradient3640);fill-opacity:1;stroke:none"
     d="m 401.155,471.4399 c 0,0 -33.8811,33.32835 -53.4375,46.59374 -25.5318,17.31862 -53.107,32.40143 -82.3125,42.34375 -24.3446,8.28757 -50.3187,11.30101 -75.9063,13.875 -32.974,3.31707 -66.3456,4.65073 -99.375002,1.9375 -26.989799,-2.21711 -73.266799,-12.47297 -90.124999,-16.34375 l 0,198.96875 c 5.0424,0.99664 25.8707,5.0948 38.8126,7.625 23.8643,4.66558 47.389099,11.57974 71.593701,13.90625 18.7964,1.80668 37.9767,2.7646 56.6563,0 27.9855,-4.14189 55.336,-13.24445 81.25,-24.59375 19.3103,-8.45712 38.6607,-18.15116 54.5,-32.0625 8.7193,-7.65801 14.25,-18.30868 21.375,-27.46875 17.8159,-22.90462 36.9386,-44.8479 53.4374,-68.71875 8.5467,-12.36545 23.5313,-38.5 23.5313,-38.5 l 0,-117.56249 z"
     id="path2987"
     inkscape:connector-curvature="0" />
  <path
     style="fill:#dfcaaa;fill-opacity:1;stroke:none"
     d="m 410.8222,430.2203 26.7899,12.89882 10.9143,-12.88324 -30.7509,-28.79766 z"
     id="path2999"
     inkscape:connector-curvature="0"
     sodipodi:nodetypes="ccccc" />
  <path
     style="fill:#6c5d53;stroke:none"
     d="m 285.4608,430.81042 23.2648,17.83641 128.7324,-1.55099 -24.0404,-21.71389 -125.6304,0.77549 z"
     id="path3003"
     inkscape:connector-curvature="0" />
  <path
     style="fill:#dfc199;fill-opacity:1;stroke:none"
     d="m 448.1739,459.47978 -145.5013,2.1377 0.1378,-29.92778 145.3635,-2.1377 z"
     id="path3824"
     inkscape:connector-curvature="0"
     sodipodi:nodetypes="ccccc" />
  <path
     style="fill:#ddcfbb;fill-opacity:1;stroke:none"
     d="m 271.5451,431.33168 31.5722,30.87055 0.7016,-30.16895 -30.169,-28.76575 z"
     id="path3001"
     inkscape:connector-curvature="0" />
  <path
     style="fill:#dfc199;fill-opacity:1;stroke:none"
     d="m 164.2536,448.53118 c 0,0 -1.2357,-12.394 -0.2902,-18.4827 4.3194,-27.8163 26.8696,-80.06035 26.8696,-80.06035 l 0,-3.8385 -3.8385,0 c 0,0 -21.6779,51.92342 -24.6761,79.51199 -0.8266,7.60565 1.9352,22.86957 1.9352,22.86957 z"
     id="path3154"
     inkscape:connector-curvature="0"
     sodipodi:nodetypes="cacccac" />
  <path
     sodipodi:nodetypes="cacccac"
     inkscape:connector-curvature="0"
     id="path3228"
     d="m 229.1131,413.29394 c 0,0 -3.9761,-7.65766 -4.6519,-11.84557 -2.7386,-16.97213 2.7963,-51.4991 2.7963,-51.4991 l -0.5648,-2.35171 -3.7968,0.34986 c 0,0 -6.3028,33.01754 -2.7073,48.9632 1.3679,6.06648 8.9245,16.38332 8.9245,16.38332 z"
     style="fill:#dfc199;fill-opacity:1;stroke:none" />
</svg>
