<?xml version="1.0" encoding="UTF-8"?>

<!DOCTYPE svg PUBLIC '-//W3C//DTD SVG 1.0//EN' 'http://www.w3.org/TR/2001/REC-SVG-20010904/DTD/svg10.dtd'>
<svg fill-opacity="1" xmlns:xlink="http://www.w3.org/1999/xlink" color-rendering="auto" color-interpolation="auto" text-rendering="auto" stroke="black" stroke-linecap="square" stroke-miterlimit="10" shape-rendering="auto" stroke-opacity="1" fill="black" stroke-dasharray="none" font-weight="normal" stroke-width="1" xmlns="http://www.w3.org/2000/svg" font-family="&apos;Dialog&apos;" font-style="normal" stroke-linejoin="miter" font-size="12" stroke-dashoffset="0" image-rendering="auto">
  <!--Generated by Tech4Learning SVG Exporter-->
  <defs id="genericDefs" />
  <g>
    <g fill="white" text-rendering="geometricPrecision" image-rendering="optimizeQuality" color-rendering="optimizeQuality" color-interpolation="linearRGB" stroke="white">
      <rect width="640" x="0" height="480" y="0" stroke="none" />
    </g>
    <g fill="rgb(77,199,255)" text-rendering="geometricPrecision" image-rendering="optimizeQuality" color-rendering="optimizeQuality" color-interpolation="linearRGB" stroke="rgb(77,199,255)">
      <path d="M17.141 22.054 L628.519 101.307 L614.367 360.294 L27.047 365.955 L17.141 22.054 Z" stroke="none" />
    </g>
    <g fill="rgb(153,153,153)" text-rendering="geometricPrecision" image-rendering="optimizeQuality" color-rendering="optimizeQuality" color-interpolation="linearRGB" stroke="rgb(153,153,153)">
      <path d="M24.217 361.709 L612.952 357.463 L639.841 463.606 L1.573 463.606 L24.217 361.709 Z" stroke="none" />
    </g>
    <g fill="rgb(255,239,179)" text-rendering="geometricPrecision" image-rendering="optimizeQuality" color-rendering="optimizeQuality" color-interpolation="linearRGB" stroke="rgb(255,239,179)">
      <path d="M73.754 213.47 C73.754 213.47 171.181 187.383 329.516 188.12 C487.852 188.857 587.65 221.098 587.65 221.098 L611.449 421.606 C611.449 421.606 483.75 436.282 324.758 436.282 C165.766 436.282 35.687 421.606 35.687 421.606 L73.754 213.47 Z" stroke="none" />
    </g>
    <g fill="rgb(136,64,0)" text-rendering="geometricPrecision" image-rendering="optimizeQuality" color-rendering="optimizeQuality" color-interpolation="linearRGB" stroke="rgb(136,64,0)">
      <path d="M350.942 373.495 C350.942 373.495 348.636 356.375 326.053 356.003 C303.471 355.632 302.547 373.495 302.547 373.495 L302.547 437.436 L350.942 436.305 L350.942 373.495 Z" stroke="none" />
    </g>
    <g fill="rgb(136,64,0)" text-rendering="geometricPrecision" image-rendering="optimizeQuality" color-rendering="optimizeQuality" color-interpolation="linearRGB" stroke="rgb(136,64,0)">
      <path d="M236.945 284.266 C236.945 284.266 238.91 269.46 257.527 268.591 C276.144 267.723 276.84 283.091 276.84 283.091 L276.603 338.183 L236.712 338.383 L236.945 284.266 Z" stroke="none" />
    </g>
    <g fill="rgb(255,217,77)" text-rendering="geometricPrecision" image-rendering="optimizeQuality" color-rendering="optimizeQuality" color-interpolation="linearRGB" stroke="rgb(255,217,77)">
      <path d="M368.117 128.197 C368.117 138.357 359.563 146.594 349.012 146.594 C338.46 146.594 329.906 138.357 329.906 128.197 C329.906 118.036 338.46 109.799 349.012 109.799 C359.563 109.799 368.117 118.036 368.117 128.197 Z" opacity="0.82" stroke="none" />
    </g>
    <g fill="white" text-rendering="geometricPrecision" image-rendering="optimizeQuality" color-rendering="optimizeQuality" color-interpolation="linearRGB" stroke="white">
      <path d="M209.47 157.405 C212.3 170.626 240.537 153.091 327.967 163.291 C415.396 173.49 449.096 154.346 446.265 141.125 C443.435 127.905 424.061 145.718 322.743 125.327 C221.425 104.936 206.639 144.184 209.47 157.405 Z" opacity="0.82" stroke="none" />
    </g>
    <g fill="rgb(245,229,172)" text-rendering="geometricPrecision" image-rendering="optimizeQuality" color-rendering="optimizeQuality" color-interpolation="linearRGB" stroke="rgb(245,229,172)">
      <path d="M57.1 159.107 C68.152 126.631 89.585 94.152 124.054 85.541 C138.696 88.826 136 94.155 136 94.155 L151.417 140.597 L169.736 146.373 L175.254 168.005 L199.458 226.866 L232.855 226.914 L234.045 249.69 L261.145 332.831 L293.828 333.977 L293.828 358.959 L314.052 438.286 C314.052 438.286 240.05 436.039 163.014 431.551 C85.978 427.063 35.079 422.033 35.079 422.033 C35.079 422.033 54.337 167.226 57.1 159.107 Z" stroke="none" />
    </g>
    <g fill="rgb(245,213,159)" text-rendering="geometricPrecision" image-rendering="optimizeQuality" color-rendering="optimizeQuality" color-interpolation="linearRGB" stroke="rgb(245,213,159)">
      <path d="M124.671 95.79 L110.498 106.017 L109.509 155.578 L124.671 149.677 L124.671 95.79 Z" stroke="none" />
    </g>
    <g fill="rgb(245,213,159)" text-rendering="geometricPrecision" image-rendering="optimizeQuality" color-rendering="optimizeQuality" color-interpolation="linearRGB" stroke="rgb(245,213,159)">
      <path d="M105.225 109.358 L92.284 118.18 L91.382 160.938 L105.225 155.848 L105.225 109.358 Z" stroke="none" />
    </g>
    <g fill="rgb(245,213,159)" text-rendering="geometricPrecision" image-rendering="optimizeQuality" color-rendering="optimizeQuality" color-interpolation="linearRGB" stroke="rgb(245,213,159)">
      <path d="M86.108 123.085 L74.4 136.365 L73.583 169.305 L86.108 164.862 L86.108 123.085 Z" stroke="none" />
    </g>
    <g fill="rgb(245,213,159)" text-rendering="geometricPrecision" image-rendering="optimizeQuality" color-rendering="optimizeQuality" color-interpolation="linearRGB" stroke="rgb(245,213,159)">
      <path d="M69.56 143.804 L61.677 157.074 L60.729 175.593 L70.219 172.534 L69.56 143.804 Z" stroke="none" />
    </g>
    <g fill="rgb(245,213,159)" text-rendering="geometricPrecision" image-rendering="optimizeQuality" color-rendering="optimizeQuality" color-interpolation="linearRGB" stroke="rgb(245,213,159)">
      <path d="M292.858 333.265 C292.858 333.265 290.48 329.804 286.235 329.818 C269.258 329.871 221.199 330.285 164.207 333.83 C92.967 338.261 39.104 344.553 39.104 344.553 L38.043 352.07 C38.043 352.07 93.978 345.528 165.217 342.773 C218.647 340.707 266.241 339.155 285.659 339.373 C292.132 339.446 293.627 343.005 293.627 343.005 L292.858 333.265 Z" stroke="none" />
    </g>
    <g fill="rgb(245,202,120)" text-rendering="geometricPrecision" image-rendering="optimizeQuality" color-rendering="optimizeQuality" color-interpolation="linearRGB" stroke="rgb(245,202,120)">
      <path d="M293.165 340.481 C293.165 340.481 288.908 337.353 286.314 337.356 C271.612 337.37 226.15 338.574 157.451 342.554 C88.753 346.534 37.535 351.769 37.535 351.769 L36.463 358.783 L158.471 350.231 C158.471 350.231 267.894 345.935 286.314 345.906 C290.918 345.898 293.361 349.717 293.361 349.717 L293.165 340.481 Z" stroke="none" />
    </g>
    <g fill="rgb(245,202,120)" text-rendering="geometricPrecision" image-rendering="optimizeQuality" color-rendering="optimizeQuality" color-interpolation="linearRGB" stroke="rgb(245,202,120)">
      <path d="M233.823 241.687 C233.823 241.687 225.531 238.232 219.946 238.876 C206.914 240.379 189.239 243.103 151.183 246.916 C96.817 252.364 45.529 265.088 45.529 265.088 L44.422 271.898 C44.422 271.898 87.618 259.984 141.984 254.537 C180.041 250.723 202.797 248.066 219.07 246.534 C226.044 245.877 234.506 251.024 234.506 251.024 L233.823 241.687 Z" stroke="none" />
    </g>
    <g fill="rgb(245,213,159)" text-rendering="geometricPrecision" image-rendering="optimizeQuality" color-rendering="optimizeQuality" color-interpolation="linearRGB" stroke="rgb(245,213,159)">
      <path d="M133.521 81.589 C133.521 81.589 127.031 78.487 124.325 79.685 C113.504 84.476 95.232 96.491 81.914 109.63 C65.266 126.054 63.204 130.125 63.204 130.125 L59.588 142.113 C59.588 142.113 74.111 120.767 91.114 107.627 C103.867 97.773 126.323 85.109 126.323 85.109 L135.267 86.962 L133.521 81.589 Z" stroke="none" />
    </g>
    <g fill="rgb(245,202,120)" text-rendering="geometricPrecision" image-rendering="optimizeQuality" color-rendering="optimizeQuality" color-interpolation="linearRGB" stroke="rgb(245,202,120)">
      <path d="M135.337 86.655 C135.337 86.655 127.68 83.278 125.182 84.823 C115.187 91.003 92.889 104.827 79.382 116.874 C65.876 128.921 60.469 140.52 60.469 140.52 L58.421 155.593 C58.421 155.593 65.381 135.787 82.206 121.006 C93.984 110.659 116.322 95.342 127.751 88.343 C132.648 89.161 136.581 92.437 136.581 92.437 L135.337 86.655 Z" stroke="none" />
    </g>
    <g fill="rgb(136,64,0)" text-rendering="geometricPrecision" image-rendering="optimizeQuality" color-rendering="optimizeQuality" color-interpolation="linearRGB" stroke="rgb(136,64,0)">
      <path d="M227.366 372.913 C227.366 372.913 229.338 355.794 248.639 355.421 C267.939 355.05 268.729 372.913 268.729 372.913 L268.729 436.854 L227.366 435.724 L227.366 372.913 Z" stroke="none" />
    </g>
    <g fill="rgb(136,64,0)" text-rendering="geometricPrecision" image-rendering="optimizeQuality" color-rendering="optimizeQuality" color-interpolation="linearRGB" stroke="rgb(136,64,0)">
      <path d="M171.822 374.307 C171.822 374.307 173.624 357.609 191.271 357.247 C208.917 356.884 209.639 374.307 209.639 374.307 L209.639 435.11 L171.822 433.365 L171.822 374.307 Z" stroke="none" />
    </g>
    <g fill="rgb(136,64,0)" text-rendering="geometricPrecision" image-rendering="optimizeQuality" color-rendering="optimizeQuality" color-interpolation="linearRGB" stroke="rgb(136,64,0)">
      <path d="M122.536 375.254 C122.536 375.254 124.334 359.318 139.226 359.225 C154.119 359.133 154.44 375.798 154.44 375.798 L153.462 432.249 L121.589 429.974 L122.536 375.254 Z" stroke="none" />
    </g>
    <g fill="rgb(136,64,0)" text-rendering="geometricPrecision" image-rendering="optimizeQuality" color-rendering="optimizeQuality" color-interpolation="linearRGB" stroke="rgb(136,64,0)">
      <path d="M89.611 376.904 C89.611 376.904 90.955 362.847 100.335 362.803 C109.714 362.759 109.694 377.466 109.694 377.466 L108.276 429.037 L88.226 427.889 L89.611 376.904 Z" stroke="none" />
    </g>
    <g fill="rgb(136,64,0)" text-rendering="geometricPrecision" image-rendering="optimizeQuality" color-rendering="optimizeQuality" color-interpolation="linearRGB" stroke="rgb(136,64,0)">
      <path d="M64.893 377.122 C64.893 377.122 66.072 364.069 73.238 364.03 C80.403 363.991 80.229 377.647 80.229 377.647 L78.587 425.645 L62.69 424.519 L64.893 377.122 Z" stroke="none" />
    </g>
    <g fill="rgb(136,64,0)" text-rendering="geometricPrecision" image-rendering="optimizeQuality" color-rendering="optimizeQuality" color-interpolation="linearRGB" stroke="rgb(136,64,0)">
      <path d="M46.469 378.778 C46.469 378.778 47.342 366.545 52.04 366.43 C56.738 366.315 56.518 379.102 56.518 379.102 L55.085 423.581 L44.454 423.239 L46.469 378.778 Z" stroke="none" />
    </g>
    <g fill="rgb(136,64,0)" text-rendering="geometricPrecision" image-rendering="optimizeQuality" color-rendering="optimizeQuality" color-interpolation="linearRGB" stroke="rgb(136,64,0)">
      <path d="M210.126 269.999 C210.126 269.999 208.502 255.141 191.35 254.802 C174.197 254.463 173.361 269.963 173.361 269.963 L172.892 324.058 L209.671 322.54 L210.126 269.999 Z" stroke="none" />
    </g>
    <g fill="rgb(136,64,0)" text-rendering="geometricPrecision" image-rendering="optimizeQuality" color-rendering="optimizeQuality" color-interpolation="linearRGB" stroke="rgb(136,64,0)">
      <path d="M156.241 277.757 C156.241 277.757 155.086 263.532 140.619 262.957 C126.153 262.382 125.223 277.185 125.223 277.185 L124.078 327.4 L155.131 326.431 L156.241 277.757 Z" stroke="none" />
    </g>
    <g fill="rgb(136,64,0)" text-rendering="geometricPrecision" image-rendering="optimizeQuality" color-rendering="optimizeQuality" color-interpolation="linearRGB" stroke="rgb(136,64,0)">
      <path d="M113.207 282.781 C113.207 282.781 112.423 270.24 103.311 269.891 C94.2 269.543 93.674 282.616 93.674 282.616 L93.138 328.507 L112.662 328.149 L113.207 282.781 Z" stroke="none" />
    </g>
    <g fill="rgb(136,64,0)" text-rendering="geometricPrecision" image-rendering="optimizeQuality" color-rendering="optimizeQuality" color-interpolation="linearRGB" stroke="rgb(136,64,0)">
      <path d="M82.416 287.88 C82.416 287.88 81.755 276.237 74.794 275.966 C67.833 275.694 67.496 287.839 67.496 287.839 L67.31 330.561 L82.798 330.086 L82.416 287.88 Z" stroke="none" />
    </g>
    <g fill="rgb(136,64,0)" text-rendering="geometricPrecision" image-rendering="optimizeQuality" color-rendering="optimizeQuality" color-interpolation="linearRGB" stroke="rgb(136,64,0)">
      <path d="M59.294 292.602 C59.294 292.602 58.899 281.699 54.339 281.442 C49.779 281.184 49.518 292.558 49.518 292.558 L49.26 332.145 L59.601 332.192 L59.294 292.602 Z" stroke="none" />
    </g>
    <g fill="rgb(245,213,159)" text-rendering="geometricPrecision" image-rendering="optimizeQuality" color-rendering="optimizeQuality" color-interpolation="linearRGB" stroke="rgb(245,213,159)">
      <path d="M292.858 318.469 C292.858 318.469 290.479 315.008 286.235 315.022 C269.258 315.075 221.199 315.489 164.207 319.034 C92.967 323.464 39.104 329.757 39.104 329.757 L38.043 337.274 C38.043 337.274 93.978 328.963 165.217 326.208 C218.647 324.142 266.24 324.359 285.659 324.577 C292.132 324.65 293.627 328.209 293.627 328.209 L292.858 318.469 Z" stroke="none" />
    </g>
    <g fill="rgb(245,202,120)" text-rendering="geometricPrecision" image-rendering="optimizeQuality" color-rendering="optimizeQuality" color-interpolation="linearRGB" stroke="rgb(245,202,120)">
      <path d="M293.165 324.684 C293.165 324.684 288.908 321.557 286.314 321.56 C271.612 321.574 226.15 322.778 157.451 326.758 C88.753 330.738 37.535 335.973 37.535 335.973 L36.463 342.987 L158.471 334.435 C158.471 334.435 267.894 330.139 286.314 330.11 C290.918 330.102 293.361 333.921 293.361 333.921 L293.165 324.684 Z" stroke="none" />
    </g>
    <g fill="rgb(136,64,0)" text-rendering="geometricPrecision" image-rendering="optimizeQuality" color-rendering="optimizeQuality" color-interpolation="linearRGB" stroke="rgb(136,64,0)">
      <path d="M158.524 183.479 C158.524 183.479 157.37 170.967 142.903 172.431 C128.436 173.895 127.506 187.208 127.506 187.208 L126.362 232.091 L157.415 226.987 L158.524 183.479 Z" stroke="none" />
    </g>
    <g fill="rgb(136,64,0)" text-rendering="geometricPrecision" image-rendering="optimizeQuality" color-rendering="optimizeQuality" color-interpolation="linearRGB" stroke="rgb(136,64,0)">
      <path d="M115.491 193.833 C115.491 193.833 114.706 182.771 105.595 183.704 C96.483 184.638 95.957 196.356 95.957 196.356 L95.421 237.305 L114.945 234.319 L115.491 193.833 Z" stroke="none" />
    </g>
    <g fill="rgb(136,64,0)" text-rendering="geometricPrecision" image-rendering="optimizeQuality" color-rendering="optimizeQuality" color-interpolation="linearRGB" stroke="rgb(136,64,0)">
      <path d="M84.699 202.582 C84.699 202.582 84.039 192.302 77.078 193.011 C70.117 193.72 69.779 204.584 69.779 204.584 L69.594 242.663 L85.081 240.123 L84.699 202.582 Z" stroke="none" />
    </g>
    <g fill="rgb(136,64,0)" text-rendering="geometricPrecision" image-rendering="optimizeQuality" color-rendering="optimizeQuality" color-interpolation="linearRGB" stroke="rgb(136,64,0)">
      <path d="M63.688 210.289 C63.688 210.289 63.58 200.603 59.008 200.676 C54.436 200.749 53.873 210.897 53.873 210.897 L52.566 246.176 L62.948 245.532 L63.688 210.289 Z" stroke="none" />
    </g>
    <g fill="rgb(136,64,0)" text-rendering="geometricPrecision" image-rendering="optimizeQuality" color-rendering="optimizeQuality" color-interpolation="linearRGB" stroke="rgb(136,64,0)">
      <path d="M414.188 374.175 C414.188 374.175 412.28 357.558 393.595 357.196 C374.91 356.836 374.146 374.175 374.146 374.175 L374.146 436.243 L414.188 435.145 L414.188 374.175 Z" stroke="none" />
    </g>
    <g fill="rgb(136,64,0)" text-rendering="geometricPrecision" image-rendering="optimizeQuality" color-rendering="optimizeQuality" color-interpolation="linearRGB" stroke="rgb(136,64,0)">
      <path d="M471.539 375.529 C471.539 375.529 469.794 359.32 452.711 358.968 C435.628 358.616 434.929 375.529 434.929 375.529 L434.929 434.549 L471.539 432.855 L471.539 375.529 Z" stroke="none" />
    </g>
    <g fill="rgb(136,64,0)" text-rendering="geometricPrecision" image-rendering="optimizeQuality" color-rendering="optimizeQuality" color-interpolation="linearRGB" stroke="rgb(136,64,0)">
      <path d="M519.251 376.448 C519.251 376.448 517.512 360.979 503.094 360.889 C488.677 360.799 488.366 376.976 488.366 376.976 L489.313 431.773 L520.169 429.564 L519.251 376.448 Z" stroke="none" />
    </g>
    <g fill="rgb(136,64,0)" text-rendering="geometricPrecision" image-rendering="optimizeQuality" color-rendering="optimizeQuality" color-interpolation="linearRGB" stroke="rgb(136,64,0)">
      <path d="M552.319 378.049 C552.319 378.049 551.018 364.404 541.938 364.362 C532.858 364.319 532.877 378.595 532.877 378.595 L534.25 428.655 L553.66 427.54 L552.319 378.049 Z" stroke="none" />
    </g>
    <g fill="rgb(136,64,0)" text-rendering="geometricPrecision" image-rendering="optimizeQuality" color-rendering="optimizeQuality" color-interpolation="linearRGB" stroke="rgb(136,64,0)">
      <path d="M576.247 379.635 C576.247 379.635 575.107 366.965 568.17 366.927 C561.233 366.888 561.401 380.144 561.401 380.144 L562.99 426.735 L578.38 425.643 L576.247 379.635 Z" stroke="none" />
    </g>
    <g fill="rgb(136,64,0)" text-rendering="geometricPrecision" image-rendering="optimizeQuality" color-rendering="optimizeQuality" color-interpolation="linearRGB" stroke="rgb(136,64,0)">
      <path d="M594.084 381.242 C594.084 381.242 593.2379 369.368 588.69 369.256 C584.1429 369.145 584.356 381.556 584.356 381.556 L585.743 424.732 L596.034 424.4 L594.084 381.242 Z" stroke="none" />
    </g>
    <g fill="rgb(136,64,0)" text-rendering="geometricPrecision" image-rendering="optimizeQuality" color-rendering="optimizeQuality" color-interpolation="linearRGB" stroke="rgb(136,64,0)">
      <path d="M349.63 282.949 C349.63 282.949 347.266 267.686 324.765 266.693 C302.265 265.701 301.412 281.529 301.412 281.529 L301.656 338.285 L349.869 338.701 L349.63 282.949 Z" stroke="none" />
    </g>
    <g fill="rgb(136,64,0)" text-rendering="geometricPrecision" image-rendering="optimizeQuality" color-rendering="optimizeQuality" color-interpolation="linearRGB" stroke="rgb(136,64,0)">
      <path d="M412.646 285.409 C412.646 285.409 410.681 270.603 392.063 269.734 C373.446 268.866 372.75 284.234 372.75 284.234 L372.987 339.326 L412.878 339.527 L412.646 285.409 Z" stroke="none" />
    </g>
    <g fill="rgb(136,64,0)" text-rendering="geometricPrecision" image-rendering="optimizeQuality" color-rendering="optimizeQuality" color-interpolation="linearRGB" stroke="rgb(136,64,0)">
      <path d="M466.771 288.509 C466.771 288.509 464.455 274.13 447.404 273.32 C430.353 272.51 430.257 287.439 430.257 287.439 L432.352 339.61 L468.806 339.182 L466.771 288.509 Z" stroke="none" />
    </g>
    <g fill="rgb(136,64,0)" text-rendering="geometricPrecision" image-rendering="optimizeQuality" color-rendering="optimizeQuality" color-interpolation="linearRGB" stroke="rgb(136,64,0)">
      <path d="M514.39 291.648 C514.39 291.648 512.105 278.201 497.723 277.71 C483.34 277.22 483.604 291.221 483.604 291.221 L486.494 338.708 L517.191 338.795 L514.39 291.648 Z" stroke="none" />
    </g>
    <g fill="rgb(136,64,0)" text-rendering="geometricPrecision" image-rendering="optimizeQuality" color-rendering="optimizeQuality" color-interpolation="linearRGB" stroke="rgb(136,64,0)">
      <path d="M547.428 293.71 C547.428 293.71 545.645 281.483 536.587 281.177 C527.53 280.871 528.056 293.624 528.056 293.624 L531.203 338.383 L550.523 337.96 L547.428 293.71 Z" stroke="none" />
    </g>
    <g fill="rgb(136,64,0)" text-rendering="geometricPrecision" image-rendering="optimizeQuality" color-rendering="optimizeQuality" color-interpolation="linearRGB" stroke="rgb(136,64,0)">
      <path d="M571.349 297.109 C571.349 297.109 569.7621 285.788 562.842 285.55 C555.921 285.312 556.56 297.126 556.56 297.126 L559.8 338.678 L575.11 338.158 L571.349 297.109 Z" stroke="none" />
    </g>
    <g fill="rgb(136,64,0)" text-rendering="geometricPrecision" image-rendering="optimizeQuality" color-rendering="optimizeQuality" color-interpolation="linearRGB" stroke="rgb(136,64,0)">
      <path d="M589.196 301.166 C589.196 301.166 587.931 290.826 583.391 290.598 C578.851 290.37 579.504 301.16 579.504 301.16 L582.421 338.712 L592.674 338.719 L589.196 301.166 Z" stroke="none" />
    </g>
    <g fill="rgb(245,202,120)" text-rendering="geometricPrecision" image-rendering="optimizeQuality" color-rendering="optimizeQuality" color-interpolation="linearRGB" stroke="rgb(245,202,120)">
      <path d="M241.703 214.564 C241.703 214.564 243.536 202.5 260.905 201.792 C278.274 201.085 278.923 213.607 278.923 213.607 L278.702 258.498 L241.485 258.661 L241.703 214.564 Z" stroke="none" />
    </g>
    <g fill="rgb(245,202,120)" text-rendering="geometricPrecision" image-rendering="optimizeQuality" color-rendering="optimizeQuality" color-interpolation="linearRGB" stroke="rgb(245,202,120)">
      <path d="M347.095 213.492 C347.095 213.492 344.994 201.055 324.993 200.246 C304.992 199.437 304.234 212.335 304.234 212.335 L304.451 258.581 L347.308 258.92 L347.095 213.492 Z" stroke="none" />
    </g>
    <g fill="rgb(245,202,120)" text-rendering="geometricPrecision" image-rendering="optimizeQuality" color-rendering="optimizeQuality" color-interpolation="linearRGB" stroke="rgb(245,202,120)">
      <path d="M410.396 215.496 C410.396 215.496 408.563 203.432 391.194 202.723 C373.825 202.016 373.176 214.539 373.176 214.539 L373.397 259.429 L410.613 259.592 L410.396 215.496 Z" stroke="none" />
    </g>
    <g fill="rgb(245,202,120)" text-rendering="geometricPrecision" image-rendering="optimizeQuality" color-rendering="optimizeQuality" color-interpolation="linearRGB" stroke="rgb(245,202,120)">
      <path d="M462.085 220.232 C462.085 220.232 459.925 208.468 444.017 207.805 C428.11 207.142 428.02 219.357 428.02 219.357 L429.975 262.044 L463.985 264.081 L462.085 220.232 Z" stroke="none" />
    </g>
    <g fill="rgb(245,202,120)" text-rendering="geometricPrecision" image-rendering="optimizeQuality" color-rendering="optimizeQuality" color-interpolation="linearRGB" stroke="rgb(245,202,120)">
      <path d="M508.899 226.748 C508.899 226.748 506.767 215.457 493.349 214.658 C479.93 213.86 480.177 225.559 480.177 225.559 L482.874 264.099 L511.512 266.194 L508.899 226.748 Z" stroke="none" />
    </g>
    <g fill="rgb(245,202,120)" text-rendering="geometricPrecision" image-rendering="optimizeQuality" color-rendering="optimizeQuality" color-interpolation="linearRGB" stroke="rgb(245,202,120)">
      <path d="M540.914 232.644 C540.914 232.644 539.252 222.696 530.802 222.203 C522.351 221.711 522.842 232.05 522.842 232.05 L525.777 267.778 L543.802 268.555 L540.914 232.644 Z" stroke="none" />
    </g>
    <g fill="rgb(245,202,120)" text-rendering="geometricPrecision" image-rendering="optimizeQuality" color-rendering="optimizeQuality" color-interpolation="linearRGB" stroke="rgb(245,202,120)">
      <path d="M564.127 236.836 C564.127 236.836 562.647 227.602 556.19 227.222 C549.734 226.841 550.33 236.45 550.33 236.45 L553.651 269.08 L567.637 270.264 L564.127 236.836 Z" stroke="none" />
    </g>
    <g fill="rgb(245,202,120)" text-rendering="geometricPrecision" image-rendering="optimizeQuality" color-rendering="optimizeQuality" color-interpolation="linearRGB" stroke="rgb(245,202,120)">
      <path d="M582.27 241.032 C582.27 241.032 581.089 232.39 576.854 232.078 C572.618 231.766 573.227 240.765 573.227 240.765 L575.949 271.806 L585.514 272.387 L582.27 241.032 Z" stroke="none" />
    </g>
    <g fill="rgb(77,199,255)" text-rendering="geometricPrecision" image-rendering="optimizeQuality" color-rendering="optimizeQuality" color-interpolation="linearRGB" stroke="rgb(77,199,255)">
      <path d="M158.524 183.479 C158.524 183.479 157.37 170.967 142.903 172.431 C128.436 173.895 127.506 187.208 127.506 187.208 L126.702 201.195 L158.437 197.18 L158.524 183.479 Z" stroke="none" />
    </g>
    <g fill="rgb(77,199,255)" text-rendering="geometricPrecision" image-rendering="optimizeQuality" color-rendering="optimizeQuality" color-interpolation="linearRGB" stroke="rgb(77,199,255)">
      <path d="M115.491 193.833 C115.491 193.833 114.706 182.771 105.595 183.704 C96.483 184.638 95.957 196.356 95.957 196.356 L96.103 207.862 L115.286 203.785 L115.491 193.833 Z" stroke="none" />
    </g>
    <g fill="rgb(77,199,255)" text-rendering="geometricPrecision" image-rendering="optimizeQuality" color-rendering="optimizeQuality" color-interpolation="linearRGB" stroke="rgb(77,199,255)">
      <path d="M84.699 202.582 C84.699 202.582 84.039 192.302 77.078 193.011 C70.117 193.72 69.779 204.584 69.779 204.584 L69.935 214.31 L85.081 211.044 L84.699 202.582 Z" stroke="none" />
    </g>
    <g fill="rgb(77,199,255)" text-rendering="geometricPrecision" image-rendering="optimizeQuality" color-rendering="optimizeQuality" color-interpolation="linearRGB" stroke="rgb(77,199,255)">
      <path d="M63.688 210.289 C63.688 210.289 63.58 200.603 59.008 200.676 C54.436 200.749 53.873 210.897 53.873 210.897 L53.588 218.187 L63.63 216.089 L63.688 210.289 Z" stroke="none" />
    </g>
    <g fill="rgb(77,199,255)" text-rendering="geometricPrecision" image-rendering="optimizeQuality" color-rendering="optimizeQuality" color-interpolation="linearRGB" stroke="rgb(77,199,255)">
      <path d="M96.636 127.487 L100.066 126.124 L100.066 138.052 L96.636 139.074 L96.636 127.487 Z" stroke="none" />
    </g>
    <g fill="rgb(77,199,255)" text-rendering="geometricPrecision" image-rendering="optimizeQuality" color-rendering="optimizeQuality" color-interpolation="linearRGB" stroke="rgb(77,199,255)">
      <path d="M64.931 153.98 L66.417 153.056 L66.417 161.147 L64.931 161.841 L64.931 153.98 Z" stroke="none" />
    </g>
    <g fill="rgb(245,202,120)" text-rendering="geometricPrecision" image-rendering="optimizeQuality" color-rendering="optimizeQuality" color-interpolation="linearRGB" stroke="rgb(245,202,120)">
      <path d="M174.397 149.012 C174.397 149.012 164.09 146.731 158.155 146.003 C147.134 148.194 145.233 149.615 114.231 158.721 C83.23 167.827 52.715 180.401 52.715 180.401 L52.669 186.025 C52.669 186.025 82.754 173.54 113.945 164.769 C145.137 155.998 151.996 156.242 164.668 154.78 C171.492 153.993 174.934 155.041 174.934 155.041 L174.397 149.012 Z" stroke="none" />
    </g>
    <g fill="rgb(245,213,159)" text-rendering="geometricPrecision" image-rendering="optimizeQuality" color-rendering="optimizeQuality" color-interpolation="linearRGB" stroke="rgb(245,213,159)">
      <path d="M174.95 154.158 C174.95 154.158 163.22 150.566 160.793 151.106 C151.96 152.879 147.728 153.958 116.351 162.827 C84.974 171.696 52.854 185.972 52.854 185.972 L53.206 192.771 C53.206 192.771 83.35 178.122 114.798 169.235 C146.245 160.348 156.398 160.793 167.088 158.776 C172.844 157.691 175.263 161.758 175.263 161.758 L174.95 154.158 Z" stroke="none" />
    </g>
    <g fill="rgb(245,202,120)" text-rendering="geometricPrecision" image-rendering="optimizeQuality" color-rendering="optimizeQuality" color-interpolation="linearRGB" stroke="rgb(245,202,120)">
      <path d="M175.269 161.015 C175.269 161.015 164.962 155.299 159.028 156.479 C148.007 158.67 148.096 159.189 117.094 168.295 C86.092 177.401 52.965 192.234 52.965 192.234 L53.104 196.446 C53.104 196.446 83.294 183.773 114.486 175.002 C145.677 166.231 147.299 165.574 159.971 164.111 C166.795 163.324 175.807 168.38 175.807 168.38 L175.269 161.015 Z" stroke="none" />
    </g>
    <g fill="white" text-rendering="geometricPrecision" image-rendering="optimizeQuality" color-rendering="optimizeQuality" color-interpolation="linearRGB" stroke="white">
      <path d="M578.849 174.024 C576.919 189.93 532.456 196.195 478.921 175.444 C425.385 154.693 415.469 170.343 417.398 154.437 C419.328 138.531 406.806 142.935 501.617 135.429 C596.429 127.923 580.778 158.117 578.849 174.024 Z" opacity="0.82" stroke="none" />
    </g>
    <g fill="rgb(245,213,159)" text-rendering="geometricPrecision" image-rendering="optimizeQuality" color-rendering="optimizeQuality" color-interpolation="linearRGB" stroke="rgb(245,213,159)">
      <path d="M232.97 224.001 C232.97 224.001 217.663 219.573 210.129 220.435 C196.136 222.035 183.603 223.967 148.265 227.508 C93.9 232.956 42.686 246.386 42.686 246.386 L43.936 253.793 C43.936 253.793 84.701 240.577 139.067 235.129 C171.687 231.86 193.045 228.982 210.85 227.294 C222.72 226.169 233.555 231.208 233.555 231.208 L232.97 224.001 Z" stroke="none" />
    </g>
    <g fill="rgb(245,202,120)" text-rendering="geometricPrecision" image-rendering="optimizeQuality" color-rendering="optimizeQuality" color-interpolation="linearRGB" stroke="rgb(245,202,120)">
      <path d="M233.448 229.43 C233.448 229.43 222.56 225.576 216.975 226.22 C203.943 227.723 187.866 230.047 149.809 233.861 C95.444 239.309 44.156 252.033 44.156 252.033 L43.048 258.842 C43.048 258.842 86.245 246.929 140.611 241.481 C178.667 237.668 202.022 235.01 218.296 233.478 C225.27 232.822 233.732 237.969 233.732 237.969 L233.448 229.43 Z" stroke="none" />
    </g>
    <g fill="rgb(245,213,159)" text-rendering="geometricPrecision" image-rendering="optimizeQuality" color-rendering="optimizeQuality" color-interpolation="linearRGB" stroke="rgb(245,213,159)">
      <path d="M233.345 236.857 C233.345 236.857 221.433 232.429 213.898 233.291 C199.905 234.891 184.977 237.023 149.639 240.564 C95.273 246.012 44.059 259.442 44.059 259.442 L45.31 266.848 C45.31 266.848 86.075 253.632 140.44 248.184 C173.06 244.915 194.418 242.037 212.223 240.349 C224.094 239.224 233.73 242.666 233.73 242.666 L233.345 236.857 Z" stroke="none" />
    </g>
    <g fill="rgb(245,213,159)" text-rendering="geometricPrecision" image-rendering="optimizeQuality" color-rendering="optimizeQuality" color-interpolation="linearRGB" stroke="rgb(245,213,159)">
      <path d="M173.851 144.989 C173.851 144.989 158.856 139.679 156.429 140.218 C147.596 141.992 147.73 142.81 116.352 151.679 C84.975 160.549 52.888 175.625 52.888 175.625 L53.053 180.165 C53.053 180.165 55.819 179.397 57.967 178.566 C66.56 175.243 88.977 166.516 114.136 159.406 C145.583 150.519 156.067 151.623 166.757 149.607 C172.514 148.521 174.548 149.344 174.548 149.344 L173.851 144.989 Z" stroke="none" />
    </g>
  </g>
</svg>
