<?xml version="1.0" encoding="UTF-8"?>
<!DOCTYPE svg PUBLIC "-//W3C//DTD SVG 1.1//EN" "http://www.w3.org/Graphics/SVG/1.1/DTD/svg11.dtd">
<!-- Creator: CorelDRAW -->
<svg xmlns="http://www.w3.org/2000/svg" xml:space="preserve" width="210mm" height="297mm" style="shape-rendering:geometricPrecision; text-rendering:geometricPrecision; image-rendering:optimizeQuality; fill-rule:evenodd; clip-rule:evenodd"
viewBox="0 0 210 297"
 xmlns:xlink="http://www.w3.org/1999/xlink">
 <defs>
  <style type="text/css">
   <![CDATA[
    .str0 {stroke:black;stroke-width:3.5278}
    .fil0 {fill:none}
    .fil1 {fill:black;fill-rule:nonzero}
   ]]>
  </style>
 </defs>
 <g id="Layer_x0020_1">
  <metadata id="CorelCorpID_0Corel-Layer"/>
  <polygon class="fil0 str0" points="81.7519,127.202 125.999,127.202 125.999,188.012 81.7519,188.012 "/>
  <path class="fil1" d="M94.9174 141.834l-2.2859 0 -4.1457 -6.3191c-0.2418,-0.3687 -0.4117,-0.6463 -0.5051,-0.833l-0.0263 0c0.0359,0.3542 0.055,0.8976 0.055,1.6252l0 5.5269 -2.1399 0 0 -10.0556 2.4415 0 3.9902 6.1205c0.1819,0.2777 0.3495,0.5505 0.505,0.821l0.0288 0c-0.0383,-0.2322 -0.0575,-0.6941 -0.0575,-1.3811l0 -5.5604 2.1399 0 0 10.0556zm7.1018 0l-6.032 0 0 -10.0556 5.7998 0 0 1.8431 -3.533 0 0 2.238 3.2888 0 0 1.8359 -3.2888 0 0 2.3003 3.7652 0 0 1.8383zm13.8277 -10.0556l-2.6593 10.0556 -2.5109 0 -1.6683 -6.4508c-0.0886,-0.3375 -0.1412,-0.7133 -0.1604,-1.1298l-0.0287 0c-0.0431,0.4572 -0.1029,0.8354 -0.1819,1.1298l-1.7115 6.4508 -2.6162 0 -2.6425 -10.0556 2.475 0 1.417 6.6974c0.0598,0.2848 0.1053,0.6678 0.1316,1.1489l0.0431 0c0.0192,-0.3591 0.0862,-0.7516 0.2035,-1.1777l1.8239 -6.6686 2.4247 0 1.6492 6.7524c0.0599,0.2489 0.1149,0.608 0.1604,1.0795l0.0287 0c0.0192,-0.3686 0.0671,-0.742 0.1461,-1.1202l1.3882 -6.7117 2.2883 0zm-0.4165 9.6702l0 -2.2452c0.4069,0.3423 0.8497,0.5984 1.326,0.7684 0.4764,0.1699 0.9575,0.2561 1.4434,0.2561 0.2848,0 0.5338,-0.0263 0.7468,-0.0766 0.213,-0.0527 0.3902,-0.1221 0.5338,-0.213 0.1436,-0.0934 0.2489,-0.1987 0.3183,-0.3232 0.0718,-0.1245 0.1053,-0.2585 0.1053,-0.4045 0,-0.1963 -0.055,-0.371 -0.1675,-0.5242 -0.1125,-0.1556 -0.2657,-0.2968 -0.4596,-0.4285 -0.1939,-0.1316 -0.4237,-0.2585 -0.6917,-0.3782 -0.2657,-0.122 -0.553,-0.2465 -0.8617,-0.3734 -0.7852,-0.3255 -1.3716,-0.7252 -1.757,-1.1992 -0.3853,-0.4715 -0.5768,-1.0412 -0.5768,-1.709 0,-0.5242 0.1029,-0.9742 0.3135,-1.35 0.2107,-0.3782 0.4979,-0.687 0.8593,-0.9311 0.3639,-0.2418 0.7828,-0.4213 1.2591,-0.5362 0.4763,-0.1149 0.9814,-0.1699 1.5152,-0.1699 0.5242,0 0.9885,0.0311 1.3906,0.0933 0.4046,0.0622 0.778,0.1604 1.1203,0.292l0 2.0968c-0.17,-0.1172 -0.3519,-0.2202 -0.5506,-0.3087 -0.1986,-0.0886 -0.4045,-0.1628 -0.6151,-0.2226 -0.2083,-0.0575 -0.4189,-0.1006 -0.6272,-0.1293 -0.2082,-0.0263 -0.4045,-0.0407 -0.5912,-0.0407 -0.2585,0 -0.4907,0.0239 -0.7013,0.0718 -0.2107,0.0503 -0.3878,0.1197 -0.5338,0.2083 -0.1436,0.0885 -0.2561,0.1938 -0.3375,0.3183 -0.079,0.1245 -0.1173,0.2633 -0.1173,0.4165 0,0.17 0.0431,0.3208 0.1317,0.4524 0.0885,0.134 0.2154,0.2609 0.3782,0.3806 0.1651,0.1173 0.3638,0.2346 0.5984,0.3495 0.2321,0.1148 0.4978,0.2321 0.7923,0.3542 0.4021,0.1676 0.7611,0.3471 1.0819,0.5362 0.3207,0.1891 0.596,0.4045 0.8234,0.6415 0.2298,0.2393 0.4045,0.5122 0.5266,0.8186 0.122,0.304 0.1819,0.6606 0.1819,1.0675 0,0.5625 -0.1053,1.0317 -0.3184,1.4147 -0.213,0.3806 -0.5002,0.6893 -0.8665,0.9239 -0.3638,0.237 -0.7875,0.4069 -1.2734,0.5098 -0.4835,0.103 -0.9933,0.1532 -1.5319,0.1532 -0.5505,0 -1.0747,-0.0454 -1.5726,-0.1388 -0.4979,-0.0933 -0.9311,-0.2346 -1.2949,-0.4213z"/>
  <line class="fil0 str0" x1="85.5481" y1="146.816" x2="121.823" y2= "146.816" />
  <line class="fil0 str0" x1="85.5481" y1="153.635" x2="121.823" y2= "153.635" />
  <line class="fil0 str0" x1="85.5481" y1="160.244" x2="121.823" y2= "160.244" />
  <line class="fil0 str0" x1="85.5481" y1="167.063" x2="121.823" y2= "167.063" />
  <line class="fil0 str0" x1="85.5481" y1="173.811" x2="121.823" y2= "173.811" />
  <line class="fil0 str0" x1="85.5481" y1="180.63" x2="121.823" y2= "180.63" />
 </g>
</svg>
