<?xml version="1.0" encoding="UTF-8" standalone="no"?>
<!-- Generator: Adobe Illustrator 13.0.2, SVG Export Plug-In . SVG Version: 6.00 Build 14948)  -->
<svg
   xmlns:dc="http://purl.org/dc/elements/1.1/"
   xmlns:cc="http://creativecommons.org/ns#"
   xmlns:rdf="http://www.w3.org/1999/02/22-rdf-syntax-ns#"
   xmlns:svg="http://www.w3.org/2000/svg"
   xmlns="http://www.w3.org/2000/svg"
   xmlns:sodipodi="http://sodipodi.sourceforge.net/DTD/sodipodi-0.dtd"
   xmlns:inkscape="http://www.inkscape.org/namespaces/inkscape"
   version="1.0"
   id="Layer_1"
   x="0px"
   y="0px"
   width="553.96997"
   height="751.59497"
   viewBox="0 0 553.97 751.595"
   enable-background="new 0 0 553.97 751.595"
   xml:space="preserve"
   sodipodi:version="0.32"
   inkscape:version="0.46"
   sodipodi:docname="world_landmarks.svg"
   inkscape:output_extension="org.inkscape.output.svg.inkscape"><metadata
   id="metadata496"><rdf:RDF><cc:Work
       rdf:about=""><dc:format>image/svg+xml</dc:format><dc:type
         rdf:resource="http://purl.org/dc/dcmitype/StillImage" /></cc:Work></rdf:RDF></metadata><defs
   id="defs494"><inkscape:perspective
     sodipodi:type="inkscape:persp3d"
     inkscape:vp_x="0 : 375.79749 : 1"
     inkscape:vp_y="0 : 1000 : 0"
     inkscape:vp_z="553.96997 : 375.79749 : 1"
     inkscape:persp3d-origin="276.98499 : 250.53166 : 1"
     id="perspective498" /></defs><sodipodi:namedview
   inkscape:window-height="1088"
   inkscape:window-width="1920"
   inkscape:pageshadow="2"
   inkscape:pageopacity="0.0"
   guidetolerance="10.0"
   gridtolerance="10.0"
   objecttolerance="10.0"
   borderopacity="1.0"
   bordercolor="#666666"
   pagecolor="#ffffff"
   id="base"
   showgrid="false"
   inkscape:zoom="0.93704506"
   inkscape:cx="276.98499"
   inkscape:cy="375.79749"
   inkscape:window-x="0"
   inkscape:window-y="22"
   inkscape:current-layer="Layer_1" />
<g
   id="g3"
   transform="translate(0,-5.22573e-6)">
	<polygon
   points="543.198,657.098 483.772,657.546 484.222,651.492 539.609,651.042 542.301,651.492 543.198,657.098 "
   id="polygon5"
   style="fill:#0071bc" />
	<path
   d="M 488.482,649.698 L 539.16,649.025 L 537.442,624.507 C 537.442,624.507 536.695,623.853 533.779,626.319 C 530.863,628.785 533.443,624.525 533.443,624.525 C 533.443,624.525 532.284,619.348 532.134,618.975 C 531.984,618.602 531.087,619.274 531.087,619.648 C 531.087,620.022 531.163,617.705 530.939,617.48 C 530.714,617.256 529.967,615.612 528.996,618.078 C 528.023,620.545 526.154,642.521 526.154,642.521 C 526.154,642.521 526.23,647.082 525.855,647.38 C 525.482,647.679 521.371,643.866 521.371,643.193 C 521.371,642.52 526.304,620.02 526.006,619.199 C 525.707,618.377 520.101,623.759 518.531,623.534 C 516.961,623.309 518.904,641.025 518.604,641.175 C 518.306,641.324 515.465,643.941 514.718,644.315 C 513.971,644.689 516.213,627.871 516.213,626.6 C 516.213,625.329 511.354,632.803 510.981,635.121 C 510.607,637.437 510.009,635.737 509.335,634.821 C 508.989,634.351 510.606,628.244 510.457,628.019 C 510.307,627.794 507.766,628.916 507.467,629.365 C 507.167,629.813 504.776,642.221 502.907,643.642 C 501.038,645.061 502.607,635.868 502.01,635.568 C 501.411,635.269 498.646,637.961 498.646,637.961 C 498.646,637.961 499.17,647.155 498.573,647.828 C 497.975,648.5 497.003,648.276 496.629,647.977 C 496.256,647.678 498.573,642.744 498.423,642.147 C 498.274,641.547 498.199,640.8 497.825,641.25 C 497.452,641.698 498.124,639.456 497.751,639.231 C 497.377,639.006 496.555,639.456 496.555,639.456 C 496.555,639.456 493.789,646.332 493.191,646.931 C 492.593,647.53 488.93,647.979 488.482,649.698 z"
   id="path7"
   style="fill:#0071bc" />
	<path
   d="M 483.549,459.463 C 483.698,458.864 484.147,457.893 484.521,457.818 C 484.894,457.743 484.222,455.351 484.222,455.351 C 484.222,455.351 490.425,454.455 490.95,456.248 C 491.473,458.041 490.875,458.041 490.875,458.191 C 490.875,458.339 493.94,461.853 492.893,470.15 C 491.847,478.448 495.958,491.678 495.211,496.76 C 494.463,501.843 494.015,502.59 493.267,505.431 C 492.52,508.272 491.249,494.07 490.352,493.173 C 489.456,492.276 489.006,488.986 489.903,488.763 C 490.8,488.538 491.549,486.52 491.997,486.146 C 492.446,485.773 490.352,475.532 490.202,475.084 C 490.202,475.084 489.082,477.85 487.961,476.206 C 486.839,474.56 488.559,471.869 488.408,471.271 C 488.26,470.672 488.184,466.861 488.484,466.488 C 488.783,466.114 488.857,464.095 488.632,464.021 C 488.407,463.945 486.988,464.394 486.24,464.469 C 485.493,464.544 484.67,462.451 485.268,462.451 C 485.866,462.451 484.595,460.656 484.521,460.208 C 484.447,459.76 483.549,459.463 483.549,459.463 z"
   id="path9"
   style="fill:#0071bc" />
	<path
   d="M 487.21,499.902 C 487.664,499.946 487.884,508.124 487.884,508.124 C 487.884,508.124 488.631,511.713 489.08,512.385 C 489.528,513.058 488.482,514.479 487.061,514.627 C 485.64,514.777 484.968,514.553 484.968,514.553 C 484.819,514.479 484.52,518.515 484.446,518.74 C 484.37,518.965 481.53,516.797 481.604,513.956 C 481.678,511.115 484.894,499.678 487.21,499.902 z"
   id="path11"
   style="fill:#0071bc" />
	<path
   d="M 532.322,549.404 C 532.09,549.174 538.825,539.706 538.825,539.706 L 540.17,540.042 L 540.395,537.912 L 553.513,543.406 L 552.056,544.584 L 552.952,545.649 L 550.933,548.338 C 550.933,548.338 553.849,551.198 553.568,552.823 C 553.289,554.449 544.992,562.97 544.206,563.137 C 543.423,563.306 539.16,571.267 539.16,571.267 L 535.965,570.819 C 535.965,570.819 534.283,560.616 532.939,559.438 C 531.593,558.26 531.818,557.308 532.098,556.13 C 532.378,554.952 532.489,549.573 532.322,549.404 z"
   id="path13"
   style="fill:#0071bc" />
	<path
   d="M 520.025,526.438 C 519.727,526.737 507.168,556.188 506.72,557.533 C 506.272,558.88 503.58,570.39 499.245,577.417 C 494.908,584.443 494.161,588.181 494.013,590.722 C 493.863,593.264 494.909,596.851 494.76,598.346 C 494.611,599.841 490.424,604.924 490.276,607.765 C 490.126,610.606 490.724,610.754 490.724,610.754 C 490.724,610.754 496.105,607.615 498.199,606.12 C 500.292,604.625 509.711,589.226 510.458,582.349 C 511.206,575.473 514.494,565.905 514.943,564.858 C 515.391,563.812 519.876,545.872 519.727,544.078 C 519.577,542.285 520.325,528.232 520.325,528.232 L 520.025,526.438 z"
   id="path15"
   style="fill:#0071bc" />
	<path
   d="M 490.567,612.732 C 490.567,612.732 511.6,598.611 514.413,589.931 L 516.051,587.682 C 516.347,587.084 511.176,605.787 508.643,608.636 C 506.112,611.486 504.923,613.581 504.48,615.378 C 504.038,617.173 500.925,625.405 499.739,628.399 C 498.552,631.394 497.517,634.686 497.223,636.48 C 496.931,638.276 489.022,642.936 487.971,641.594 C 486.92,640.252 487.364,638.606 487.364,638.606 C 487.364,638.606 485.119,637.716 487.204,635.168 C 489.288,632.62 487.113,632.337 487.137,631.703 C 487.173,630.742 486.997,617.827 490.567,612.732 z"
   id="path17"
   style="fill:#0071bc" />
	<path
   d="M 521.782,581.527 C 521.782,581.527 521.334,617.744 520.436,619.874 C 519.539,622.005 510.905,623.125 507.318,626.825 C 503.73,630.525 502.497,632.88 500.478,634.449 C 498.46,636.019 497.564,638.037 497.787,637.477 C 498.012,636.916 505.524,617.519 510.794,610.679 C 516.064,603.839 514.831,597.224 515.951,594.757 C 517.073,592.291 520.212,582.761 521.782,581.527 z"
   id="path19"
   style="fill:#0071bc" />
	<path
   d="M 524.248,561.233 C 524.248,561.569 523.688,610.567 523.688,611.463 C 523.688,612.36 537.59,604.064 538.712,602.494 C 539.833,600.924 532.993,570.314 532.321,565.717 C 531.648,561.12 529.967,552.152 529.293,551.366 C 528.62,550.581 528.285,557.757 527.051,558.093 C 525.817,558.43 524.248,561.233 524.248,561.233 z"
   id="path21"
   style="fill:#0071bc" />
	<path
   d="M 521.446,526.138 C 521.446,526.138 529.631,533.988 531.2,543.629 C 532.769,553.272 531.294,546.974 531.088,547.33 C 530.732,547.945 529.519,543.629 527.725,545.087 C 525.931,546.544 525.147,546.769 525.147,547.218 C 525.147,547.666 524.922,537.462 524.922,537.462 L 521.446,526.138 z"
   id="path23"
   style="fill:#0071bc" />
	<path
   d="M 485.454,520.42 C 485.454,520.42 493.64,516.72 494.536,515.711 C 495.432,514.702 486.912,525.69 485.679,525.578 C 484.445,525.466 483.325,525.129 483.661,524.681 C 483.997,524.232 484.109,522.214 484.444,522.102 C 484.781,521.99 485.454,520.42 485.454,520.42 z"
   id="path25"
   style="fill:#0071bc" />
	<path
   d="M 515.615,523.896 C 515.503,524.232 506.085,534.436 502.272,536.903 C 498.46,539.369 493.751,545.759 492.518,548.226 C 491.284,550.693 487.584,556.524 487.023,558.205 C 486.463,559.887 486.127,561.793 486.351,563.25 C 486.576,564.708 487.164,565.778 487.584,566.166 C 488.07,566.614 489.9,566.913 490.462,566.689 C 491.023,566.464 491.957,565.941 491.957,565.941 C 491.957,565.941 495.656,546.431 496.666,546.208 C 497.674,545.983 497.563,549.46 496.329,552.039 C 495.097,554.617 495.32,555.065 495.209,555.515 C 495.097,555.963 495.432,556.411 495.432,556.411 C 495.432,556.411 510.121,534.099 510.905,532.193 C 511.691,530.288 515.615,523.896 515.615,523.896 z"
   id="path27"
   style="fill:#0071bc" />
	<path
   d="M 508.888,545.087 C 508.553,545.424 488.93,575.36 488.706,578.611 C 488.482,581.863 489.378,582.088 489.939,582.536 C 490.5,582.983 492.406,582.536 492.742,582.311 C 493.079,582.087 494.424,578.275 494.424,578.275 L 508.888,545.087 z"
   id="path29"
   style="fill:#0071bc" />
	<path
   d="M 494.2,534.436 C 493.751,535.445 487.585,539.593 487.921,540.491 C 488.258,541.388 488.483,542.285 488.93,542.285 C 489.378,542.285 489.603,542.396 489.715,542.846 C 489.827,543.294 489.715,543.407 489.94,544.078 C 490.165,544.752 490.837,546.321 490.837,546.321 L 494.2,534.436 z"
   id="path31"
   style="fill:#0071bc" />
	<path
   d="M 518.605,506.442 C 518.867,506.405 520.548,506.48 520.174,505.695 C 519.851,505.016 519.249,502.714 519.408,501.525 L 530.938,501.098 C 530.938,501.098 522.706,499.472 519.899,498.945 C 519.896,498.466 519.859,497.98 519.799,497.54 L 530.114,493.398 C 530.114,493.398 521.256,494.856 518.978,495.197 C 518.555,494.398 518.117,493.735 518.117,493.735 C 518.009,493.636 517.901,493.541 517.792,493.448 L 525.33,485.551 C 525.33,485.551 517.625,490.909 515.828,492.115 C 514.835,491.595 513.843,491.294 512.88,491.153 L 513.147,480.692 C 513.147,480.881 510.955,488.717 510.278,491.13 C 508.912,491.294 507.678,491.707 506.684,492.149 L 499.393,484.654 L 504.482,493.368 C 504.285,493.505 504.177,493.588 504.177,493.588 C 503.548,494.035 503.008,494.495 502.543,494.961 L 493.787,494.82 L 493.935,496.016 L 500.721,497.483 C 500.471,498.006 500.293,498.524 500.174,499.028 L 497.299,499.38 L 497.323,499.46 C 496.635,498.341 496.029,497.66 496.029,497.66 C 496.029,497.66 496.551,500.576 496.102,503.566 C 495.654,506.555 487.956,515.675 487.956,515.675 C 487.956,515.675 487.582,516.497 490.273,516.198 C 492.963,515.898 497.673,512.834 499.018,507.677 C 499.666,505.189 498.993,502.772 498.122,500.934 L 499.974,501.229 C 500.084,503.419 501.036,504.986 501.036,504.986 C 501.036,504.837 503.503,502.07 504.212,502.257 C 504.922,502.445 508.549,500.612 508.735,500.8 C 508.922,500.987 510.454,502.22 510.454,502.22 C 510.454,502.22 511.949,502.93 511.949,503.079 C 511.949,503.228 512.024,506.817 511.837,506.853 C 511.649,506.891 511.09,507.041 511.09,507.041 C 511.09,507.041 510.828,508.908 510.567,508.834 C 510.305,508.759 510.231,509.282 510.081,509.432 C 509.932,509.582 511.39,510.666 511.39,510.666 C 511.39,510.666 511.875,512.159 511.39,512.197 C 510.903,512.235 510.605,514.216 510.941,514.59 C 511.278,514.963 511.914,514.963 512.099,514.926 C 512.287,514.889 512.809,515.338 514.342,514.664 C 515.874,513.991 518.229,507.189 518.229,507.189 C 518.229,507.189 518.344,506.48 518.605,506.442 z M 520.325,519.897 C 520.362,519.785 519.016,514.74 519.204,514.627 C 519.391,514.515 519.876,514.179 520.213,513.394 C 520.549,512.609 519.503,510.889 519.503,510.815 C 519.503,510.741 518.681,507.713 518.681,507.713 C 518.681,507.9 515.466,514.963 515.466,514.963 C 515.466,514.963 515.615,518.401 515.691,518.738 C 515.767,519.075 517.037,518.85 517.037,518.999 C 517.037,519.149 517.186,521.69 517.261,521.69 C 517.336,521.69 517.672,522.101 518.12,521.728 C 518.569,521.354 520.662,521.503 520.662,521.503 C 520.662,521.503 520.288,520.009 520.325,519.897 z M 487.921,532.753 C 486.464,533.538 486.689,533.65 486.912,533.987 C 487.136,534.323 487.36,534.995 487.36,534.995 C 487.36,534.995 486.799,534.435 486.464,536.117 C 486.127,537.799 486.015,538.247 486.352,538.359 C 486.689,538.471 493.64,534.323 494.761,531.519 C 495.882,528.716 499.918,517.616 499.918,517.616 C 499.806,518.066 489.378,531.969 487.921,532.753 z M 495.882,519.412 L 499.694,510.105 C 499.582,510.554 493.863,517.282 493.19,520.645 C 492.518,524.008 491.845,524.681 491.396,525.466 C 490.947,526.25 495.882,519.412 495.882,519.412 z M 510.458,520.757 C 510.01,520.645 509.112,519.859 508.104,518.963 C 507.094,518.066 504.291,514.142 504.291,514.142 C 503.508,512.123 500.704,510.217 501.377,511.114 C 502.049,512.011 500.816,523 500.592,523.673 C 500.367,524.345 495.771,537.575 496.107,537.127 C 496.444,536.679 497.454,535.781 498.911,534.884 C 500.368,533.988 499.696,532.53 499.92,530.401 C 500.145,528.269 500.593,528.606 501.378,526.812 C 502.162,525.018 503.957,524.906 505.302,524.458 C 506.648,524.01 509.563,523.337 510.012,523.225 C 510.458,523.112 510.905,520.869 510.458,520.757 z"
   id="path33"
   style="fill:#0071bc" />
	<path
   d="M 482.65,454.268 C 482.65,454.268 487.976,451.746 491.929,454.184 C 491.929,454.184 494.451,454.773 496.274,451.941 C 496.274,451.941 495.993,450.4 491.845,449.699 C 487.696,448.999 484.388,449.671 484.388,449.671 C 484.388,449.671 480.801,450.372 479.651,451.718 C 478.503,453.063 482.65,454.268 482.65,454.268 z"
   id="path35"
   style="fill:#0071bc" />
	<path
   d="M 480.689,450.036 C 480.689,450.036 486.744,446.111 495.097,449.756 C 495.097,449.756 495.209,447.429 495.742,447.233 C 496.275,447.037 488.145,443.897 480.465,447.008 C 480.465,447.007 481.559,448.382 480.689,450.036 z"
   id="path37"
   style="fill:#0071bc" />
	<path
   d="M 485.333,442.813 C 485.334,442.817 485.934,443.124 486.088,443.216 C 487.35,444.15 491.157,442.823 491.157,442.823 C 491.157,442.823 496.338,439.962 495.564,433.234 C 495.564,433.234 495.625,435.277 493.368,437.146 C 493.156,436.18 492.869,435.381 492.307,434.257 C 492.039,433.722 491.806,433.279 491.606,432.877 C 491.662,432.812 491.719,432.75 491.776,432.693 C 492.78,431.687 497.726,427.434 492.896,415.953 C 492.896,415.953 493.592,424.072 491.852,425.464 C 490.112,426.856 482.457,430.104 482.689,436.598 C 482.922,443.093 483.929,441.88 485.341,442.822"
   id="path39"
   style="fill:#0071bc" />
	<rect
   x="478.289"
   y="661.716"
   width="68.279999"
   height="11.436"
   id="rect41"
   style="fill:#0071bc" />
	<rect
   x="474.927"
   y="676.17902"
   width="79.042999"
   height="12.108"
   id="rect43"
   style="fill:#0071bc" />
	<path
   d="M 479.972,692.997 L 479.972,751.521 L 547.243,751.521 L 547.243,692.997 L 479.972,692.997 z M 506.114,713.85 L 497.188,713.85 L 497.188,697.369 L 506.114,697.369 L 506.114,713.85 z M 519.082,713.85 L 510.154,713.85 L 510.154,697.369 L 519.082,697.369 L 519.082,713.85 z M 533.11,713.85 L 524.182,713.85 L 524.182,697.369 L 533.11,697.369 L 533.11,713.85 z"
   id="path45"
   style="fill:#0071bc" />
</g>
<g
   id="g47"
   transform="translate(0,-5.22573e-6)">
	<path
   d="M 269.322,664.295 C 269.322,664.295 271.226,670.243 270.036,672.862 C 268.846,675.483 369.079,674.292 369.079,674.292 C 369.079,674.292 368.604,667.624 369.557,665.959 C 370.509,664.295 369.794,664.771 369.794,664.771 L 269.322,664.295 z"
   id="path49"
   style="fill:#0071bc" />
	<path
   d="M 280.273,654.292 C 280.273,654.292 298.842,603.341 298.842,601.677 C 298.842,600.011 301.225,600.245 301.225,600.245 L 288.606,654.531 L 280.273,654.292 z"
   id="path51"
   style="fill:#0071bc" />
	<polygon
   points="295.509,596.678 299.558,594.297 342.176,595.009 345.983,596.439 346.46,594.297 342.413,592.867 300.272,592.39 295.034,593.583 295.509,596.678 "
   id="polygon53"
   style="fill:#0071bc" />
	<path
   d="M 301.938,589.771 L 307.175,590.487 L 317.891,456.445 L 315.746,457.873 C 315.746,457.873 311.699,509.538 311.699,511.681 C 311.7,513.822 302.415,589.057 301.938,589.771 z"
   id="path55"
   style="fill:#0071bc" />
	<path
   d="M 320.988,437.992 L 324.557,438.23 C 324.557,438.23 323.845,420.611 323.606,418.945 C 323.369,417.28 322.415,417.992 322.415,417.992 L 320.988,437.992 z"
   id="path57"
   style="fill:#0071bc" />
	<path
   d="M 316.226,444.541 C 315.703,445.025 321.463,433.826 328.845,442.872 L 328.783,445.136 C 328.782,445.135 323.011,438.23 316.226,444.541 z"
   id="path59"
   style="fill:#0071bc" />
	<path
   d="M 314.261,447.933 L 314.379,451.149 L 317.296,448.648 L 327.711,448.648 L 328.069,454.363 C 328.069,454.363 330.032,451.267 330.508,450.91 C 330.984,450.553 331.045,447.993 331.045,447.993 L 328.723,445.732 L 316.759,445.851 L 314.261,447.933 z"
   id="path61"
   style="fill:#0071bc" />
	<path
   d="M 321.7,456.445 L 323.604,455.968 C 323.604,455.968 322.176,580.25 327.175,589.771 L 314.32,589.771 C 314.32,589.771 325.51,458.825 321.7,456.445 z"
   id="path63"
   style="fill:#0071bc" />
	<path
   d="M 298.131,654.532 L 301.226,654.769 C 301.226,654.769 310.748,611.914 310.51,612.39 C 310.273,612.867 308.129,612.154 308.129,612.154 C 308.129,612.154 298.845,654.057 298.131,654.532 z"
   id="path65"
   style="fill:#0071bc" />
	<path
   d="M 329.796,613.105 C 330.509,613.105 332.176,613.582 332.176,613.582 C 332.176,613.582 345.748,650.962 346.461,653.342 C 347.176,655.724 347.176,655.009 347.176,655.009 L 340.273,655.247 L 329.796,613.105 z"
   id="path67"
   style="fill:#0071bc" />
	<path
   d="M 342.415,601.2 C 342.415,601.915 359.08,654.532 359.08,654.532 L 355.509,655.247 C 355.509,655.247 338.128,601.678 337.413,601.678 C 336.7,601.677 342.415,601.2 342.415,601.2 z"
   id="path69"
   style="fill:#0071bc" />
	<path
   d="M 331.701,589.771 L 338.843,589.771 C 338.843,589.771 327.653,462.159 327.653,461.205 C 327.652,460.255 331.225,589.06 331.701,589.771 z"
   id="path71"
   style="fill:#0071bc" />
	<path
   d="M 297.534,597.392 C 297.534,597.392 298.486,598.461 298.369,599.058 C 298.249,599.654 342.769,599.774 342.769,599.774 C 342.769,599.774 343.246,598.462 343.603,598.223 C 343.96,597.984 297.534,597.392 297.534,597.392 z"
   id="path73"
   style="fill:#0071bc" />
	<path
   d="M 269.917,655.127 C 270.274,655.127 369.674,655.841 369.674,655.841 C 369.674,655.841 368.721,657.388 368.721,658.341 C 368.721,659.294 272.773,658.104 272.416,658.817 C 272.06,659.531 269.917,655.127 269.917,655.127 z"
   id="path75"
   style="fill:#0071bc" />
	<path
   d="M 268.965,675.247 C 268.846,675.602 242.774,713.459 242.774,713.459 C 242.774,713.459 245.751,716.196 246.108,716.077 C 246.465,715.958 263.965,687.744 264.798,687.626 C 265.63,687.509 270.868,677.627 270.511,677.03 C 270.154,676.437 268.965,675.247 268.965,675.247 z"
   id="path77"
   style="fill:#0071bc" />
	<path
   d="M 273.13,738.814 C 273.13,738.337 279.676,717.744 291.343,709.531 C 303.011,701.317 312.415,699.887 313.486,699.768 C 314.557,699.649 324.556,699.649 329.08,700.601 C 333.604,701.552 348.01,709.769 349.08,711.197 C 350.152,712.627 356.581,721.673 358.127,723.935 C 359.674,726.197 362.531,735.005 363.245,739.767 C 363.961,744.529 364.318,746.789 364.318,746.789 C 364.318,746.789 362.293,729.292 363.841,728.457 C 365.388,727.624 367.53,726.792 367.53,726.792 C 367.53,726.792 359.317,711.196 344.676,699.768 C 330.031,688.339 282.058,685.602 272.178,738.695 L 273.13,738.814 z"
   id="path79"
   style="fill:#0071bc" />
	<path
   d="M 371.222,677.626 C 371.222,677.626 395.746,714.529 395.982,715.244 C 396.221,715.957 390.506,718.694 390.506,718.694 L 369.913,677.984 L 371.222,677.626 z"
   id="path81"
   style="fill:#0071bc" />
	<path
   d="M 270.542,688.28 C 270.094,688.907 267.505,693.279 267.505,693.279 L 265.006,689.353 L 270.542,688.28 z"
   id="path83"
   style="fill:#0071bc" />
	<path
   d="M 257.506,701.405 C 257.773,701.317 261.881,701.493 261.881,701.493 L 264.738,696.585 L 257.506,701.405 z"
   id="path85"
   style="fill:#0071bc" />
	<path
   d="M 255.81,703.726 L 260.185,704.082 L 256.881,708.637 L 255.631,703.995 C 255.631,703.996 255.899,703.546 255.81,703.726 z"
   id="path87"
   style="fill:#0071bc" />
	<polygon
   points="273.399,700.601 276.522,696.135 269.917,695.512 273.399,700.601 "
   id="polygon89"
   style="fill:#0071bc" />
	<polygon
   points="271.702,693.458 278.129,693.815 280.632,689.262 271.702,693.458 "
   id="polygon91"
   style="fill:#0071bc" />
	<polygon
   points="273.13,687.656 269.292,692.476 278.755,688.371 273.13,687.656 "
   id="polygon93"
   style="fill:#0071bc" />
	<polygon
   points="271.255,704.977 268.042,709.619 260.006,709.797 271.255,704.977 "
   id="polygon95"
   style="fill:#0071bc" />
	<polygon
   points="266.612,711.94 263.221,716.672 259.471,711.76 266.612,711.94 "
   id="polygon97"
   style="fill:#0071bc" />
	<polygon
   points="257.238,712.475 260.988,717.476 250.095,715.512 257.238,712.475 "
   id="polygon99"
   style="fill:#0071bc" />
	<polygon
   points="253.489,707.119 249.024,713.279 255.542,710.067 253.489,707.119 "
   id="polygon101"
   style="fill:#0071bc" />
	<polygon
   points="267.774,696.943 264.381,701.493 271.078,701.493 267.774,696.943 "
   id="polygon103"
   style="fill:#0071bc" />
	<path
   d="M 302.548,604.579 C 302.86,604.937 304.112,606.721 304.112,606.721 L 304.602,602.884 L 302.548,604.579 z"
   id="path105"
   style="fill:#0071bc" />
	<path
   d="M 300.45,601.588 L 302.103,603.686 L 304.469,601.452 L 300.36,600.695 C 300.36,600.695 298.666,607.479 298.798,607.524 C 298.933,607.57 302.95,607.657 302.95,607.657 L 301.655,605.25 L 299.556,606.14 L 300.45,601.588 z"
   id="path107"
   style="fill:#0071bc" />
	<polygon
   points="307.013,601.186 310.986,601.452 308.753,603.686 307.013,601.186 "
   id="polygon109"
   style="fill:#0071bc" />
	<polygon
   points="308.353,605.07 305.809,607.524 309.468,607.524 308.353,605.07 "
   id="polygon111"
   style="fill:#0071bc" />
	<polygon
   points="305.718,602.259 305.272,606.542 307.594,604.579 305.718,602.259 "
   id="polygon113"
   style="fill:#0071bc" />
	<path
   d="M 311.299,602.792 C 311.299,602.928 310.941,606.455 310.941,606.455 L 309.336,604.578 L 311.299,602.792 z"
   id="path115"
   style="fill:#0071bc" />
	<polygon
   points="313.04,602.48 312.28,606.72 315.183,604.711 313.04,602.48 "
   id="polygon117"
   style="fill:#0071bc" />
	<polygon
   points="314.021,601.41 319.245,601.543 316.477,603.952 314.021,601.41 "
   id="polygon119"
   style="fill:#0071bc" />
	<path
   d="M 316.121,605.113 C 315.941,605.25 313.174,607.479 313.174,607.479 L 318.799,607.703 L 316.121,604.979 L 316.121,605.113 z"
   id="path121"
   style="fill:#0071bc" />
	<polygon
   points="317.371,604.489 319.915,607.124 320.138,601.989 317.371,604.489 "
   id="polygon123"
   style="fill:#0071bc" />
	<polygon
   points="321.12,602.212 320.985,607.345 323.621,604.891 321.12,602.212 "
   id="polygon125"
   style="fill:#0071bc" />
	<polygon
   points="321.968,607.926 324.782,605.47 327.993,607.881 321.968,607.926 "
   id="polygon127"
   style="fill:#0071bc" />
	<polygon
   points="328.263,602.703 328.263,606.675 325.942,604.667 328.263,602.703 "
   id="polygon129"
   style="fill:#0071bc" />
	<polygon
   points="332.995,613.238 337.413,615.917 337.37,613.06 332.995,613.238 "
   id="polygon131"
   style="fill:#0071bc" />
	<polygon
   points="317.892,450.015 327.295,449.957 322.95,455.312 317.892,450.015 "
   id="polygon133"
   style="fill:#0071bc" />
	<path
   d="M 330.748,451.919 C 330.568,452.217 328.129,456.206 328.129,456.206 L 328.426,465.254 L 329.08,459.6 L 330.449,457.753 L 330.748,451.919 z"
   id="path135"
   style="fill:#0071bc" />
	<path
   d="M 314.617,451.919 C 314.617,451.919 317.116,455.015 316.999,455.551 C 316.879,456.086 315.332,457.101 315.332,457.101 L 314.438,456.862 L 314.617,451.919 z"
   id="path137"
   style="fill:#0071bc" />
	<path
   d="M 311.642,626.378 C 311.82,626.378 329.32,626.734 329.32,626.734 L 333.306,653.874 L 337.354,653.815 L 329.438,624.056 L 311.523,625.247 L 311.642,626.378 z"
   id="path139"
   style="fill:#0071bc" />
	<path
   d="M 311.045,625.308 C 311.045,625.484 309.141,648.399 306.642,653.697 L 304.262,653.758 L 310.45,625.309 L 311.045,625.309 L 311.045,625.308 z"
   id="path141"
   style="fill:#0071bc" />
	<polygon
   points="312.117,617.213 311.522,622.63 328.546,622.984 329.08,617.806 328.604,617.747 327.83,621.438 313.546,621.377 313.01,617.449 321.7,617.333 325.092,617.391 312.059,616.14 312.117,617.213 "
   id="polygon143"
   style="fill:#0071bc" />
	<path
   d="M 332.236,614.83 C 332.711,615.009 337.712,617.866 337.712,617.866 C 337.712,617.866 334.556,620.722 334.439,620.901 C 334.319,621.081 332.236,614.83 332.236,614.83 z"
   id="path145"
   style="fill:#0071bc" />
	<polygon
   points="334.319,622.984 338.366,619.712 339.14,623.341 334.258,623.341 334.319,622.984 "
   id="polygon147"
   style="fill:#0071bc" />
	<polygon
   points="346.878,644.932 351.789,648.549 348.619,650.023 346.878,644.932 "
   id="polygon149"
   style="fill:#0071bc" />
	<path
   d="M 335.806,624.799 C 336.118,624.891 339.512,624.891 339.512,624.891 L 340.629,628.327 L 335.806,624.799 z"
   id="path151"
   style="fill:#0071bc" />
	<path
   d="M 303.085,617.704 C 303.13,617.568 307.951,614.802 307.951,614.802 L 306.611,621.275 L 303.085,617.704 z"
   id="path153"
   style="fill:#0071bc" />
	<polygon
   points="303.62,612.614 302.951,615.871 307.503,612.838 303.62,612.614 "
   id="polygon155"
   style="fill:#0071bc" />
	<polygon
   points="301.969,613.06 297.773,612.435 301.076,615.871 301.969,613.06 "
   id="polygon157"
   style="fill:#0071bc" />
	<path
   d="M 297.102,614.801 C 297.328,614.979 300.361,617.526 300.361,617.526 L 295.674,620.516 L 297.102,614.801 z"
   id="path159"
   style="fill:#0071bc" />
	<polygon
   points="302.326,619.176 301.166,622.924 306.075,623.239 302.326,619.176 "
   id="polygon161"
   style="fill:#0071bc" />
	<polygon
   points="305.272,626.451 299.647,630.157 303.665,633.862 305.272,626.451 "
   id="polygon163"
   style="fill:#0071bc" />
	<polygon
   points="302.684,639.175 295.986,642.969 300.719,647.656 302.684,639.175 "
   id="polygon165"
   style="fill:#0071bc" />
	<path
   d="M 294.871,645.024 C 294.737,645.203 291.656,653.729 291.656,653.729 L 298.397,649.977 L 294.871,645.024 z"
   id="path167"
   style="fill:#0071bc" />
	<polygon
   points="298.532,631.945 296.121,640.424 301.254,637.613 302.014,634.935 298.532,631.945 "
   id="polygon169"
   style="fill:#0071bc" />
	<path
   d="M 300.138,620.07 C 300.094,620.204 299.38,623.461 299.38,623.461 L 294.915,622.838 L 300.138,620.07 z"
   id="path171"
   style="fill:#0071bc" />
	<path
   d="M 290.837,688.252 L 289.005,685.34 C 288.75,684.846 288.224,684.499 287.609,684.499 C 286.748,684.499 286.048,685.173 286.048,686.004 C 286.048,686.313 286.147,686.603 286.314,686.844 C 286.362,686.909 286.414,686.971 286.473,687.029 L 288.398,689.679 L 290.837,688.252 z"
   id="path173"
   style="fill:#0071bc" />
	<path
   d="M 294.53,686.651 L 292.995,683.897 C 292.787,683.429 292.317,683.085 291.746,683.049 C 290.944,682.997 290.255,683.567 290.207,684.321 C 290.188,684.604 290.264,684.875 290.405,685.104 C 290.444,685.167 290.492,685.223 290.541,685.28 L 292.179,687.805 L 294.53,686.651 z"
   id="path175"
   style="fill:#0071bc" />
	<path
   d="M 295.72,686.464 L 298.606,685.572 C 298.606,685.572 297.418,682.208 295.899,683.102 C 295.899,683.102 294.322,684.172 295.69,686.404 C 297.059,688.637 295.72,686.464 295.72,686.464 z"
   id="path177"
   style="fill:#0071bc" />
	<path
   d="M 281.166,693.636 C 281.162,693.743 283.457,692.209 283.457,692.209 C 283.457,692.209 281.225,691.911 281.166,693.636 z"
   id="path179"
   style="fill:#0071bc" />
	<path
   d="M 284.53,691.554 C 284.767,691.348 287,690.036 287,690.036 L 286.226,688.787 C 286.226,688.787 283.37,687.803 283.637,690.302 L 284.53,691.554 z"
   id="path181"
   style="fill:#0071bc" />
	<path
   d="M 299.647,685.244 L 302.653,684.708 L 302.534,683.878 C 302.534,683.878 300.51,682.149 299.557,684.263 L 299.647,685.244 z"
   id="path183"
   style="fill:#0071bc" />
	<path
   d="M 303.814,684.322 L 306.791,683.787 C 306.791,683.787 305.272,682.327 303.814,684.322 z"
   id="path185"
   style="fill:#0071bc" />
	<path
   d="M 295.153,623.876 C 295.75,624.057 298.547,624.592 298.547,624.592 L 297.713,627.807 L 294.44,624.951 L 295.153,623.876 z"
   id="path187"
   style="fill:#0071bc" />
	<path
   d="M 294.321,626.914 C 294.04,627.754 297.119,629.95 297.119,629.95 L 293.071,631.913 C 293.071,631.913 294.38,626.735 294.321,626.914 z"
   id="path189"
   style="fill:#0071bc" />
	<path
   d="M 292.06,635.604 C 292.297,635.604 295.631,635.902 295.631,635.902 L 296.523,631.913 L 292.06,634.412 L 292.119,635.366 L 295.097,637.448 L 293.846,641.139 L 291.286,637.151 L 292.893,644.651 L 288.309,650.367 L 292.06,635.604 z"
   id="path191"
   style="fill:#0071bc" />
	<polygon
   points="331.075,608.014 335.093,607.836 332.683,605.695 331.075,608.014 "
   id="polygon193"
   style="fill:#0071bc" />
	<polygon
   points="268.756,685.692 283.397,686.137 290.274,675.602 282.059,683.369 268.756,685.692 "
   id="polygon195"
   style="fill:#0071bc" />
	<path
   d="M 336.609,684.532 L 339.557,685.423 C 339.558,685.422 339.466,682.12 336.609,684.532 z"
   id="path197"
   style="fill:#0071bc" />
	<path
   d="M 358.217,690.422 C 358.396,690.779 360.539,694.797 360.539,694.797 L 367.859,694.53 L 361.608,693.37 L 358.217,690.422 z"
   id="path199"
   style="fill:#0071bc" />
	<path
   d="M 362.145,696.943 C 362.502,697.476 365.002,701.493 365.002,701.493 L 368.574,697.209 L 365.002,698.994 L 362.145,696.943 z"
   id="path201"
   style="fill:#0071bc" />
	<path
   d="M 367.145,705.6 C 367.415,706.047 370.181,710.513 370.181,710.513 L 374.287,710.421 L 370.716,709.082 L 367.145,705.6 z"
   id="path203"
   style="fill:#0071bc" />
	<path
   d="M 340.718,686.047 L 357.413,694.976 C 357.413,694.976 343.754,683.46 342.323,683.547 C 340.896,683.638 340.629,685.514 340.629,685.78"
   id="path205"
   style="fill:#0071bc" />
	<polygon
   points="336.789,627.836 340.985,630.605 338.396,633.64 336.789,627.836 "
   id="polygon207"
   style="fill:#0071bc" />
	<polygon
   points="341.699,632.568 339.111,636.32 342.949,637.836 341.699,632.568 "
   id="polygon209"
   style="fill:#0071bc" />
	<polygon
   points="342.415,643.461 346.074,647.656 344.198,649.444 342.415,643.461 "
   id="polygon211"
   style="fill:#0071bc" />
	<polygon
   points="339.736,605.606 338.127,607.657 340.808,607.926 339.736,605.606 "
   id="polygon213"
   style="fill:#0071bc" />
	<path
   d="M 306.433,586.498 C 307.06,587.034 308.933,588.731 308.933,588.731 L 313.844,583.552 L 311.523,580.25 L 306.344,584.088 L 306.433,586.498 z"
   id="path215"
   style="fill:#0071bc" />
	<path
   d="M 307.771,576.232 C 308.04,576.678 309.915,579.893 309.915,579.893 L 306.611,582.122 L 307.771,576.232 z"
   id="path217"
   style="fill:#0071bc" />
	<path
   d="M 307.594,571.409 C 307.862,571.946 310.987,576.321 310.987,576.321 L 315.093,572.125 L 312.059,567.661 L 307.594,571.409 z"
   id="path219"
   style="fill:#0071bc" />
	<polygon
   points="308.129,569.358 310.809,566.322 308.129,562.837 308.129,569.358 "
   id="polygon221"
   style="fill:#0071bc" />
	<polygon
   points="308.397,558.912 312.594,555.963 309.29,551.947 308.397,558.912 "
   id="polygon223"
   style="fill:#0071bc" />
	<polygon
   points="309.915,542.662 308.933,548.822 313.665,545.607 309.915,542.662 "
   id="polygon225"
   style="fill:#0071bc" />
	<polygon
   points="310.093,539.269 314.646,535.609 310.897,531.767 309.915,539.714 310.093,539.269 "
   id="polygon227"
   style="fill:#0071bc" />
	<polygon
   points="311.075,529.36 311.165,529.804 315.897,526.144 311.522,522.305 311.075,529.36 "
   id="polygon229"
   style="fill:#0071bc" />
	<polygon
   points="312.505,512.752 311.701,520.43 315.897,517.394 312.505,512.752 "
   id="polygon231"
   style="fill:#0071bc" />
	<polygon
   points="312.862,511.771 316.433,508.735 313.04,505.341 312.862,511.771 "
   id="polygon233"
   style="fill:#0071bc" />
	<polygon
   points="313.486,503.912 316.968,501.501 313.755,497.93 313.486,503.912 "
   id="polygon235"
   style="fill:#0071bc" />
	<polygon
   points="313.933,496.858 317.414,494.091 314.289,490.432 313.933,496.858 "
   id="polygon237"
   style="fill:#0071bc" />
	<polygon
   points="314.467,489.717 317.414,487.753 314.915,484.181 314.467,489.717 "
   id="polygon239"
   style="fill:#0071bc" />
	<polygon
   points="315.183,483.2 318.039,480.966 315.719,478.825 315.183,483.2 "
   id="polygon241"
   style="fill:#0071bc" />
	<path
   d="M 315.628,477.486 L 318.129,475.61 C 318.129,475.61 316.254,472.754 316.254,473.111 C 316.254,473.468 315.628,477.486 315.628,477.486 z"
   id="path243"
   style="fill:#0071bc" />
	<polygon
   points="315.897,471.681 318.664,470.252 316.254,467.485 315.897,471.681 "
   id="polygon245"
   style="fill:#0071bc" />
	<polygon
   points="316.701,466.951 318.932,465.254 316.701,462.843 316.701,466.951 "
   id="polygon247"
   style="fill:#0071bc" />
	<polygon
   points="317.236,461.861 318.843,460.878 317.683,458.913 317.236,461.861 "
   id="polygon249"
   style="fill:#0071bc" />
	<path
   d="M 310.51,562.869 C 310.867,563.108 312.059,565.607 312.059,565.607 L 315.867,561.2 L 312.652,560.966 L 310.749,558.463 L 310.51,562.869 z"
   id="path251"
   style="fill:#0071bc" />
	<polygon
   points="311.225,551.917 313.367,554.537 316.224,552.036 313.844,551.798 311.819,548.583 310.986,548.822 311.225,551.917 "
   id="polygon253"
   style="fill:#0071bc" />
	<polygon
   points="311.938,542.035 314.438,544.415 316.819,541.677 313.963,541.442 313.129,538.109 311.938,538.82 311.938,542.035 "
   id="polygon255"
   style="fill:#0071bc" />
	<polygon
   points="312.89,531.798 315.747,534.656 317.414,533.702 315.034,532.037 316.819,527.395 312.771,530.372 312.89,531.798 "
   id="polygon257"
   style="fill:#0071bc" />
	<polygon
   points="316.343,525.013 313.367,522.87 313.486,521.205 317.059,518.228 315.866,521.324 316.343,525.013 "
   id="polygon259"
   style="fill:#0071bc" />
	<path
   d="M 443.312,691.243 C 440.624,689.844 437.092,688.39 432.413,686.851 C 418.841,682.387 422.413,697.384 422.413,697.384 C 405.807,690.78 397.414,709.348 397.414,709.348 C 383.308,705.598 373.842,723.813 373.842,723.813 C 348.664,726.491 358.309,751.312 358.309,751.312 L 362.399,751.595 C 362.627,744.578 365.996,736.524 379.736,735.059 C 379.736,735.059 389.2,716.848 403.306,720.599 C 403.306,720.599 411.699,702.027 428.307,708.635 C 428.307,708.635 424.735,693.633 438.305,698.1 C 440.146,698.704 441.806,699.296 443.313,699.878 L 443.313,691.243 L 443.312,691.243 z"
   id="path261"
   style="fill:#0071bc" />
	<path
   d="M 276.965,733.726 C 277.917,730.63 272.916,727.535 272.916,727.535 C 270.536,722.059 244.704,717.181 244.704,717.181 C 236.49,705.396 212.206,705.157 212.206,705.157 C 207.585,693.5 196.458,697.369 193.857,697.948 L 193.857,709.379 C 197.835,708.409 206.762,706.812 210.777,716.942 C 210.777,716.942 235.062,717.181 243.276,728.967 C 243.276,728.967 268.617,734.297 271.712,739.117 C 271.712,739.117 273.318,740.455 274.552,742.037 L 279.345,742.037 C 279.336,736.583 276.014,736.817 276.965,733.726 z"
   id="path263"
   style="fill:#0071bc" />
	<path
   d="M 379.808,728.1 C 317.974,625.609 257.599,728.097 258.49,727.028 C 320.385,652.699 359.24,703.618 372.76,728.1 L 379.808,728.1 z"
   id="path265"
   style="fill:#0071bc" />
</g>
<g
   id="g267"
   transform="translate(0,-5.22573e-6)">
	<path
   d="M 40.813,479.541 C 40.813,479.541 68.491,507.221 68.772,507.595 C 69.054,507.971 73.37,506.564 73.37,506.564 L 73.558,504.781 L 78.342,505.906 L 81.344,505.438 L 81.72,497.557 L 69.336,483.763 C 69.337,483.762 49.352,477.852 40.813,479.541 z"
   id="path269"
   style="fill:#0071bc" />
	<path
   d="M 66.803,468.095 L 82.659,491.831 C 82.659,491.831 87.913,476.913 88.476,476.727 C 89.04,476.539 75.435,467.063 66.803,468.095 z"
   id="path271"
   style="fill:#0071bc" />
	<path
   d="M 85.005,450.455 C 84.708,450.46 100.017,475.977 100.017,475.977 L 105.271,476.728 L 110.712,466.781 C 110.712,466.781 91.854,450.362 85.005,450.455 z"
   id="path273"
   style="fill:#0071bc" />
	<path
   d="M 172.262,487.516 C 172.262,487.516 203.131,513.6 202.942,518.009 L 204.819,517.54 C 204.819,517.54 206.976,489.675 201.816,481.417 C 201.816,481.417 185.96,474.287 172.262,487.516 z"
   id="path275"
   style="fill:#0071bc" />
	<path
   d="M 214.39,500.088 L 234.374,519.51 C 234.374,519.51 237.845,519.041 237.751,518.29 C 237.656,517.54 237.656,517.54 237.656,517.54 L 246.663,517.821 L 250.51,523.076 C 250.51,523.076 253.606,523.076 253.7,523.732 C 253.794,524.388 253.888,524.012 253.888,524.012 C 253.888,524.012 259.33,501.307 258.204,500.087 C 258.204,500.087 237.281,498.681 230.807,505.436 C 230.808,505.437 219.174,499.338 214.39,500.088 z"
   id="path277"
   style="fill:#0071bc" />
	<path
   d="M 89.133,477.383 L 133.512,513.6 C 133.512,513.6 136.421,515.569 137.171,509.565 C 137.171,509.565 148.618,512.097 149.275,512.568 L 155.28,519.792 C 155.28,519.792 148.431,507.126 144.866,502.811 C 141.3,498.494 124.506,487.33 120.565,484.89 C 116.625,482.451 108.274,474.852 88.853,477.384"
   id="path279"
   style="fill:#0071bc" />
	<path
   d="M 105.741,477.007 L 108.555,477.569 C 108.555,477.569 113.903,468.752 114.842,467.907 C 115.78,467.062 126.195,475.599 126.57,476.257 C 126.945,476.913 135.297,485.545 136.516,486.953 C 137.735,488.359 156.876,519.416 157.063,520.167 C 157.251,520.917 149.933,503.653 146.93,498.024 C 143.929,492.394 134.734,481.51 134.171,480.76 C 133.608,480.01 115.593,462.369 113.624,463.308 C 111.651,464.249 106.021,475.881 105.741,477.007 z"
   id="path281"
   style="fill:#0071bc" />
	<path
   d="M 139.111,473.318 C 139.111,473.318 158.626,490.768 160.815,494.46 C 163.005,498.149 147.805,468.44 145.553,468.064 C 143.302,467.688 139.048,472.692 139.111,473.318 z"
   id="path283"
   style="fill:#0071bc" />
	<path
   d="M 132.605,443.293 C 132.605,443.293 173.764,482.073 172.887,521.105 L 172.762,523.607 L 174.138,524.108 C 174.138,524.108 175.263,508.47 174.763,503.842 C 174.262,499.214 170.384,486.201 169.384,484.2 C 168.384,482.199 161.378,466.812 157.249,461.932 C 153.123,457.054 139.111,443.544 132.605,443.293 z"
   id="path285"
   style="fill:#0071bc" />
	<path
   d="M 131.23,443.668 L 134.481,446.171 C 134.481,446.171 126.476,462.183 127.101,464.811 L 123.849,463.686 C 123.849,463.686 127.352,448.172 131.23,443.668 z"
   id="path287"
   style="fill:#0071bc" />
	<path
   d="M 136.421,450.832 L 139.048,453.459 C 139.048,453.459 132.667,466.594 132.48,467.438 L 130.229,466.125 C 130.229,466.125 135.201,451.676 136.421,450.832 z"
   id="path289"
   style="fill:#0071bc" />
	<path
   d="M 85.38,506.094 C 85.38,506.094 88.945,510.598 90.165,511.16 C 91.385,511.723 118.595,509.096 119.345,508.72 C 120.095,508.346 109.399,504.122 107.897,503.466 C 106.397,502.81 99.359,502.246 98.139,500.558 C 96.92,498.87 96.826,500.652 96.826,500.652 C 96.826,500.652 86.13,506.282 85.38,506.094 z"
   id="path291"
   style="fill:#0071bc" />
	<path
   d="M 90.259,480.949 C 90.259,480.949 95.607,484.046 96.358,485.078 C 97.108,486.11 97.108,490.238 97.108,490.238 C 97.108,490.238 87.443,501.308 86.693,503.467 C 85.943,505.626 82.94,505.814 82.94,505.814 C 82.94,505.814 83.597,488.923 90.259,480.949 z"
   id="path293"
   style="fill:#0071bc" />
	<path
   d="M 81.252,506.187 C 81.644,506.253 84.817,511.535 85.191,512.474 C 85.567,513.412 66.802,511.161 66.146,510.785 C 65.49,510.409 73.465,504.874 81.252,506.187 z"
   id="path295"
   style="fill:#0071bc" />
	<path
   d="M 42.972,483.107 C 42.972,483.107 66.991,507.877 67.085,508.346 C 67.179,508.815 63.519,509.565 63.519,509.565 C 63.519,509.565 63.519,505.532 62.487,504.874 C 61.456,504.217 48.789,498.307 48.038,498.493 C 47.288,498.682 42.972,483.107 42.972,483.107 z"
   id="path297"
   style="fill:#0071bc" />
	<path
   d="M 47.382,499.62 C 47.382,499.62 59.861,504.03 60.424,505.062 C 60.987,506.094 61.362,507.69 61.362,507.69 C 61.362,507.69 35.091,509.284 34.622,505.718 C 34.622,505.718 41.753,503.373 42.786,503.654 C 43.816,503.936 47.382,499.62 47.382,499.62 z"
   id="path299"
   style="fill:#0071bc" />
	<path
   d="M 174.89,522.794 L 174.983,524.013 C 174.983,524.013 202.379,522.044 203.036,521.105 C 203.692,520.167 199.33,513.506 199.33,513.506 L 191.59,517.634 C 191.59,517.634 181.317,512.426 180.284,512.989 C 179.252,513.551 174.843,522.418 174.89,522.652"
   id="path301"
   style="fill:#0071bc" />
	<path
   d="M 68.961,517.541 C 68.961,517.541 116.436,523.357 118.031,522.231 L 118.125,524.858 C 118.125,524.858 70.555,521.95 68.772,520.168 L 68.961,517.541 z"
   id="path303"
   style="fill:#0071bc" />
	<path
   d="M 64.269,523.827 C 64.269,523.827 107.523,530.583 118.031,529.456 L 118.125,531.802 C 118.125,531.802 64.551,528.238 64.082,525.985 L 64.269,523.827 z"
   id="path305"
   style="fill:#0071bc" />
	<path
   d="M 59.391,531.99 C 59.24,531.687 56.67,534.428 56.67,534.428 C 56.67,534.428 93.541,542.437 118.031,542.126 C 118.125,542.124 118.219,542.124 118.312,542.121 L 118.406,538.649 C 118.406,538.65 60.704,534.617 59.391,531.99 z"
   id="path307"
   style="fill:#0071bc" />
	<path
   d="M 36.92,511.113 L 36.967,512.85 L 34.996,512.85 C 34.996,512.85 37.716,515.288 54.511,516.697 L 54.417,514.115 C 54.418,514.115 37.39,513.365 36.92,511.113 z"
   id="path309"
   style="fill:#0071bc" />
	<path
   d="M 227.336,568.957 C 227.336,568.957 224.053,571.96 224.428,572.897 C 224.803,573.835 229.213,573.742 229.213,573.742 L 229.776,575.618 L 233.152,577.213 L 236.625,573.365 C 236.625,573.365 235.311,568.675 233.434,568.299 C 231.56,567.924 227.524,568.298 227.336,568.957 z"
   id="path311"
   style="fill:#0071bc" />
	<path
   d="M 157.25,571.959 C 157.25,571.959 228.182,578.058 228.557,577.962 C 228.932,577.869 228.744,580.026 228.744,580.026 C 228.744,580.026 157.907,575.805 157.25,571.959 z"
   id="path313"
   style="fill:#0071bc" />
	<path
   d="M 229.495,577.305 L 230.058,576.368 L 232.592,577.68 C 232.592,577.68 230.621,580.026 230.058,579.838 C 229.495,579.653 229.495,577.305 229.495,577.305 z"
   id="path315"
   style="fill:#0071bc" />
	<path
   d="M 223.489,561.543 L 220.581,561.355 L 222.176,556.571 L 221.519,556.665 L 219.643,561.168 L 214.577,560.886 L 213.826,559.855 L 210.636,559.573 L 210.636,555.634 L 210.167,555.54 L 209.886,559.198 L 201.536,558.918 L 194.78,558.542 L 194.687,555.915 L 183.239,554.696 L 183.334,552.725 L 182.77,552.348 L 182.302,546.719 L 181.645,546.531 L 181.645,552.911 L 174.984,552.63 L 175.077,544.749 L 173.576,544.655 L 173.671,549.253 L 171.606,549.158 L 171.7,545.312 L 170.293,545.218 L 169.542,556.946 C 169.542,556.946 164.007,556.571 162.882,558.728 C 162.882,558.728 218.05,565.295 218.895,565.109 C 219.739,564.921 224.524,561.918 224.524,561.918 L 223.489,561.543 z M 180.612,558.729 L 179.58,558.729 L 179.58,557.697 L 180.612,557.697 L 180.612,558.729 z M 183.614,559.01 L 182.677,559.01 L 182.677,558.072 L 183.614,558.072 L 183.614,559.01 z M 186.522,559.386 L 185.679,559.386 L 185.679,558.26 L 186.522,558.26 L 186.522,559.386 z M 189.337,559.667 L 188.399,559.667 L 188.399,558.541 L 189.337,558.541 L 189.337,559.667 z"
   id="path317"
   style="fill:#0071bc" />
	<path
   d="M 155.749,569.52 L 156.124,569.957 C 156.124,569.957 155.061,569.832 155.124,570.645 C 155.186,571.457 155.812,571.395 156.062,571.457 C 156.312,571.52 156.376,571.895 156.75,572.27 C 157.126,572.645 156.75,572.458 159.065,573.647 C 161.379,574.835 162.129,575.585 162.505,575.335 C 162.881,575.085 162.505,575.836 162.505,575.836 C 162.505,575.836 158.252,573.771 157.689,573.582 C 157.127,573.396 155.688,573.082 155.499,572.958 C 155.312,572.832 155.437,571.958 155.437,571.958 C 155.437,571.958 152.998,572.458 152.56,571.644 C 152.122,570.832 153.123,570.269 153.623,570.206 C 154.123,570.145 155.562,569.394 155.749,569.52 z"
   id="path319"
   style="fill:#0071bc" />
	<path
   d="M 228.932,574.398 L 223.303,573.927 L 222.74,572.802 L 226.493,569.05 L 225.181,567.735 L 224.993,562.763 L 219.552,566.046 C 219.552,566.046 218.41,565.929 216.455,565.727 L 216.455,568.393 L 215.423,568.393 L 215.423,565.621 C 214.768,565.553 214.047,565.479 213.266,565.397 L 213.266,567.735 L 212.328,567.735 L 212.328,565.299 C 211.758,565.239 211.165,565.178 210.545,565.112 L 210.545,567.829 L 209.7,567.829 L 209.7,565.026 C 209.125,564.965 208.528,564.904 207.918,564.838 L 207.918,567.453 L 206.792,567.453 L 206.792,564.721 C 205.36,564.572 203.851,564.414 202.289,564.25 L 202.289,566.14 L 201.163,566.14 L 201.163,564.132 C 200.728,564.087 200.291,564.041 199.85,563.994 L 199.85,566.14 L 198.161,566.14 L 198.161,563.817 C 197.54,563.753 196.913,563.686 196.285,563.62 L 196.285,565.766 L 195.441,565.766 L 195.441,563.531 C 194.942,563.479 194.441,563.427 193.941,563.373 L 193.941,565.673 L 192.533,565.673 L 192.533,563.225 C 177.989,561.684 162.98,560.049 162.885,559.856 L 162.79,561.733 C 162.79,561.733 160.257,562.67 160.445,563.422 L 162.416,564.734 L 162.041,566.141 C 162.041,566.141 157.537,565.766 156.974,567.079 C 156.719,567.674 156.638,567.748 156.624,567.651 C 156.547,568.382 156.514,569.756 157.255,570.362 C 157.255,570.362 227.341,577.775 228.749,576.368 C 230.151,574.96 228.932,574.398 228.932,574.398 z M 223.819,564.125 C 224.147,564.313 224.335,565.017 224.335,565.017 L 224.289,569.566 L 223.351,570.505 L 223.304,564.641 C 223.396,564.406 223.819,564.125 223.819,564.125 z M 166.445,568.768 L 165.507,568.488 L 165.414,565.766 L 165.694,565.672 L 166.539,565.672 L 166.445,568.768 z M 168.978,569.05 L 167.946,569.05 L 167.946,565.672 L 168.978,565.672 L 168.978,569.05 z M 169.26,564.077 L 168.134,563.984 L 168.228,561.45 L 169.26,561.45 L 169.26,564.077 z M 171.605,569.238 L 170.666,569.238 L 170.666,566.516 L 171.605,566.516 L 171.605,569.238 z M 171.886,564.264 L 170.855,564.359 L 170.948,561.45 L 171.979,561.732 L 171.886,564.264 z M 174.42,571.02 L 173.388,571.02 L 173.388,567.267 L 174.42,567.267 L 174.42,571.02 z M 173.67,565.203 L 173.481,561.825 L 174.89,562.013 L 174.983,565.296 L 173.67,565.203 z M 177.047,570.27 L 176.109,570.27 L 176.109,568.862 L 177.047,568.862 L 177.047,570.27 z M 177.422,563.984 L 176.296,563.984 L 176.296,562.201 L 177.422,562.201 L 177.422,563.984 z M 179.768,570.457 L 178.455,570.457 L 178.455,568.018 L 179.768,568.018 L 179.768,570.457 z M 179.768,564.453 L 178.83,564.453 L 178.83,562.482 L 179.768,562.482 L 179.768,564.453 z M 182.489,570.739 L 181.55,570.739 L 181.55,568.017 L 182.489,568.017 L 182.489,570.739 z M 182.864,564.359 L 181.55,564.359 L 181.55,562.669 L 182.864,562.669 L 182.864,564.359 z M 185.491,570.551 L 184.365,570.551 L 184.365,568.298 L 185.491,568.298 L 185.491,570.551 z M 185.772,565.11 L 184.459,565.11 L 184.459,563.139 L 185.772,563.139 L 185.772,565.11 z M 186.616,566.705 L 186.054,566.705 L 186.054,565.86 L 186.616,565.86 L 186.616,566.705 z M 188.211,571.113 L 186.992,571.113 L 186.992,568.768 L 188.211,568.768 L 188.211,571.113 z M 188.307,565.296 L 187.274,565.296 L 187.274,563.326 L 188.307,563.326 L 188.307,565.296 z M 191.026,571.583 L 189.807,571.583 L 189.807,568.862 L 191.026,568.862 L 191.026,571.583 z M 191.121,565.485 L 189.901,565.485 L 189.901,563.513 L 191.121,563.513 L 191.121,565.485 z M 194.029,571.395 L 192.622,571.395 L 192.622,569.143 L 194.029,569.143 L 194.029,571.395 z M 196.375,571.865 L 195.249,571.865 L 195.249,569.52 L 196.375,569.52 L 196.375,571.865 z M 199.658,571.959 L 198.157,571.959 L 198.157,569.894 L 199.658,569.894 L 199.658,571.959 z M 202.192,572.521 L 201.066,572.521 L 201.066,569.894 L 202.192,569.894 L 202.192,572.521 z M 203.692,564.64 L 204.913,564.64 L 204.913,567.735 L 203.692,567.735 L 203.692,564.64 z M 205.006,574.023 L 203.692,574.023 L 203.692,569.613 L 205.006,569.613 L 205.006,574.023 z M 207.634,572.991 L 206.696,572.991 L 206.696,570.083 L 207.634,570.083 L 207.634,572.991 z M 210.448,573.083 L 209.416,573.083 L 209.416,570.176 L 210.448,570.176 L 210.448,573.083 z M 213.356,573.272 L 212.23,573.272 L 212.23,570.551 L 213.356,570.551 L 213.356,573.272 z M 216.266,573.272 L 215.141,573.272 L 215.141,570.739 L 216.266,570.739 L 216.266,573.272 z M 220.581,572.663 C 220.581,572.663 220.487,573.272 220.019,573.365 C 219.55,573.46 219.596,573.226 219.455,572.803 C 219.315,572.382 219.596,570.599 219.596,570.599 L 220.629,571.349 L 220.581,572.663 z M 220.628,570.27 L 219.783,569.472 C 219.783,569.472 219.83,567.126 219.83,566.892 C 219.83,566.658 220.065,565.907 220.3,565.86 C 220.534,565.812 220.815,566.892 220.815,566.892 L 220.628,570.27 z M 222.411,571.865 L 221.567,571.113 C 221.567,571.113 221.567,566.282 221.567,565.954 C 221.567,565.625 221.802,564.828 222.083,564.828 C 222.363,564.828 222.505,565.86 222.505,565.86 L 222.411,571.865 z M 156.619,567.652 C 156.65,567.365 156.687,567.173 156.687,567.173 C 156.687,567.173 156.603,567.536 156.619,567.652 z"
   id="path321"
   style="fill:#0071bc" />
	<path
   d="M 237.689,573.522 C 237.689,573.522 239.753,576.025 241.567,576.836 C 243.381,577.649 257.079,579.652 260.145,578.464 C 263.209,577.275 267.463,579.652 269.088,580.152 C 270.715,580.651 272.028,580.464 272.028,580.464 L 272.153,581.089 C 272.153,581.089 260.707,579.151 259.831,579.715 C 258.955,580.277 243.004,579.589 241.254,578.151 C 239.502,576.712 236.625,574.961 236.438,575.087 C 236.25,575.211 237.689,573.522 237.689,573.522 z"
   id="path323"
   style="fill:#0071bc" />
	<path
   d="M 235.75,576.025 C 235.75,576.025 240.128,579.213 241.566,579.403 C 243.004,579.59 252.637,580.683 255.42,580.715 C 255.42,580.715 259.394,581.089 260.08,580.527 C 260.768,579.965 264.271,580.465 265.146,580.777 C 266.021,581.089 269.337,581.34 269.337,581.34 L 269.399,581.778 C 269.399,581.778 262.664,581.041 261.644,581.216 C 260.548,581.404 256.732,581.904 255.639,581.778 C 254.88,581.693 241.815,581.278 240.626,579.966 C 239.438,578.651 234.559,577.777 234.559,577.777 L 235.75,576.025 z"
   id="path325"
   style="fill:#0071bc" />
	<path
   d="M 234.311,578.588 C 234.311,578.588 237.877,579.526 239.19,580.215 C 240.504,580.903 241.504,581.215 241.504,581.215 L 241.504,581.528 C 241.504,581.528 234.575,580.026 234.124,580.026 C 234.092,580.026 234.249,578.775 234.249,578.775"
   id="path327"
   style="fill:#0071bc" />
	<path
   d="M 0.938,531.99 C 0.938,531.99 30.023,538.557 32.275,537.806 C 34.527,537.055 56.106,540.058 57.983,539.87 C 59.86,539.682 94.387,542.121 94.95,542.309 C 95.512,542.497 94.95,547.75 94.95,547.75 C 94.95,547.75 0.375,543.624 0,537.431 L 0,531.614 L 0.938,531.99 z"
   id="path329"
   style="fill:#0071bc" />
	<path
   d="M 100.955,543.81 L 100.955,549.816 C 100.955,549.816 99.829,553.193 159.502,549.816 L 159.689,542.872 C 159.689,542.872 121.409,548.501 100.955,543.81 z"
   id="path331"
   style="fill:#0071bc" />
	<polygon
   points="187.273,541.935 187.461,547.751 272.654,544.75 273.029,538.744 187.273,541.935 "
   id="polygon333"
   style="fill:#0071bc" />
	<polygon
   points="256.704,529.55 256.516,534.241 272.842,534.992 273.029,528.988 256.704,529.55 "
   id="polygon335"
   style="fill:#0071bc" />
	<polygon
   points="181.082,532.177 180.893,539.307 183.896,539.871 183.896,532.177 181.082,532.177 "
   id="polygon337"
   style="fill:#0071bc" />
	<polygon
   points="212.23,528.611 211.668,537.055 216.922,537.244 219.174,536.868 218.986,532.927 216.172,527.861 212.23,528.611 "
   id="polygon339"
   style="fill:#0071bc" />
	<polygon
   points="222.363,531.239 225.18,531.239 225.367,537.431 222.552,537.619 222.363,531.239 "
   id="polygon341"
   style="fill:#0071bc" />
	<polygon
   points="151.245,529.173 172.074,527.485 204.35,526.547 204.538,528.611 171.699,529.925 161.378,530.676 151.245,531.05 151.245,529.173 "
   id="polygon343"
   style="fill:#0071bc" />
	<polygon
   points="225.18,526.171 246.195,526.171 246.383,528.611 225.367,528.799 225.18,526.171 "
   id="polygon345"
   style="fill:#0071bc" />
	<path
   d="M 34.34,517.164 C 34.34,517.915 33.589,522.419 33.589,522.419 L 30.4,524.858 L 27.397,523.545 L 25.521,525.046 L 24.208,524.108 L 22.52,525.609 L 20.831,525.046 L 18.016,526.734 L 16.514,527.298 L 15.952,528.61 C 15.952,528.61 8.446,527.86 4.693,528.798 C 4.693,528.798 49.167,533.864 53.858,532.363 C 58.548,530.861 48.979,529.924 48.979,529.924 L 45.789,526.17 L 42.412,527.483 L 40.723,524.856 L 37.159,525.982 L 36.407,523.731 L 35.282,522.605 L 35.469,517.162 L 34.34,517.162 L 34.34,517.164 z"
   id="path347"
   style="fill:#0071bc" />
</g>
<g
   id="g349"
   transform="translate(0,-5.22573e-6)">
	<path
   d="M 60.395,183.261 L 60.395,178.824 C 60.395,178.824 66.55,172.953 67.124,172.953 C 67.697,172.953 72.85,176.533 73.423,177.677 C 73.995,178.823 74.139,183.404 74.139,183.404 L 60.395,183.261 z"
   id="path351"
   style="fill:#0071bc" />
	<path
   d="M 60.872,188.512 C 60.872,188.512 68.125,184.979 73.66,188.893 L 74.329,196.528 C 74.329,196.528 66.693,194.43 60.203,197.291 L 60.872,188.512 z"
   id="path353"
   style="fill:#0071bc" />
	<path
   d="M 60.776,203.398 C 60.871,203.112 68.887,198.817 74.615,203.208 L 76.427,242.243 L 59.345,242.243 L 60.776,203.398 z"
   id="path355"
   style="fill:#0071bc" />
	<path
   d="M 57.674,198.509 C 57.674,198.509 68.627,194.214 77.43,198.938 L 77.573,201.728 C 77.573,201.728 67.266,197.792 58.604,202.301 L 57.674,198.509 z"
   id="path357"
   style="fill:#0071bc" />
	<polygon
   points="56.601,242.816 79.363,242.96 79.363,246.754 56.672,246.395 56.529,243.03 56.601,242.816 "
   id="polygon359"
   style="fill:#0071bc" />
	<path
   d="M 58.772,249.973 C 58.867,249.687 68.792,244.916 76.714,250.165 L 78.336,281.659 L 81.486,282.232 L 81.295,287.003 L 78.05,288.054 C 78.05,288.054 70.51,282.71 58.676,287.959 L 55.24,286.24 L 55.335,282.615 L 58.58,282.71 L 58.772,249.973 z"
   id="path361"
   style="fill:#0071bc" />
	<ellipse
   cx="243.25301"
   cy="125.892"
   rx="2.5050001"
   ry="2.471"
   id="ellipse363"
   sodipodi:cx="243.25301"
   sodipodi:cy="125.892"
   sodipodi:rx="2.5050001"
   sodipodi:ry="2.471"
   style="fill:#0071bc" />
	<ellipse
   cx="243.313"
   cy="131.452"
   rx="1.825"
   ry="1.896"
   id="ellipse365"
   sodipodi:cx="243.313"
   sodipodi:cy="131.452"
   sodipodi:rx="1.825"
   sodipodi:ry="1.896"
   style="fill:#0071bc" />
	<ellipse
   cx="243.30099"
   cy="117.708"
   rx="1.7180001"
   ry="1.682"
   id="ellipse367"
   sodipodi:cx="243.30099"
   sodipodi:cy="117.708"
   sodipodi:rx="1.7180001"
   sodipodi:ry="1.682"
   style="fill:#0071bc" />
	<ellipse
   cx="243.246"
   cy="110.837"
   rx="1.424"
   ry="1.6569999"
   id="ellipse369"
   sodipodi:cx="243.246"
   sodipodi:cy="110.837"
   sodipodi:rx="1.424"
   sodipodi:ry="1.6569999"
   style="fill:#0071bc" />
	<rect
   x="242.633"
   y="108.391"
   width="1.288"
   height="29.705"
   id="rect371"
   style="fill:#0071bc" />
	<path
   d="M 223.45,150.48 C 223.45,150.48 241.273,138.455 243.349,134.374 C 243.349,134.374 261.029,147.545 263.892,148.476 C 266.755,149.407 264.321,149.478 264.321,149.478 C 264.321,149.478 252.082,144.18 223.45,150.48 z"
   id="path373"
   style="fill:#0071bc" />
	<path
   d="M 198.875,205.213 C 198.78,204.927 197.252,193.379 197.252,193.379 C 197.252,193.379 197.253,182.405 200.02,177.061 C 202.787,171.715 206.701,165.798 210.041,162.552 C 213.381,159.31 223.593,152.151 225.12,150.91 C 226.648,149.671 259.479,147.952 262.723,150.624 C 265.968,153.297 271.694,156.444 273.508,158.259 C 275.321,160.073 281.525,163.795 283.529,167.325 C 285.534,170.857 288.396,174.388 289.256,178.493 C 290.114,182.596 291.165,187.081 291.068,191.662 C 290.973,196.243 291.068,198.343 290.686,201.684 C 290.305,205.023 290.018,205.214 289.733,205.979 C 289.447,206.742 284.961,202.447 280.57,201.301 C 276.18,200.155 263.678,200.252 261.578,200.061 C 259.478,199.869 251.557,199.201 247.643,199.296 C 243.731,199.393 228.651,200.537 226.075,200.728 C 223.498,200.92 210.136,202.16 207.273,203.019 C 204.41,203.877 198.875,205.406 198.875,205.406 L 198.875,205.213 L 198.875,205.213 z"
   id="path375"
   style="fill:#0071bc" />
	<path
   d="M 295.648,286.145 L 313.208,286.145 L 313.019,273.356 C 313.019,273.356 308.438,269.729 305.575,269.156 C 302.713,268.585 296.985,275.075 295.649,276.409 C 294.312,277.745 295.648,286.145 295.648,286.145 z"
   id="path377"
   style="fill:#0071bc" />
	<path
   d="M 329.673,286.479 L 340.983,286.623 L 340.983,268.013 C 340.983,268.013 339.122,263.574 338.548,263.003 C 337.976,262.429 329.099,280.181 329.673,286.479 z"
   id="path379"
   style="fill:#0071bc" />
	<path
   d="M 286.725,224.204 C 286.625,224.394 286.51,217.764 287.441,216.259 C 288.373,214.758 297.39,206.023 299.968,204.236 L 300.254,194.43 L 300.899,194.286 L 301.471,204.236 C 301.471,204.236 311.419,209.174 313.855,213.613 C 316.287,218.05 316.144,222.703 316.216,224.062 C 316.286,225.422 288.014,221.772 286.725,224.204 z"
   id="path381"
   style="fill:#0071bc" />
	<path
   d="M 148.436,232.724 C 148.436,232.509 148.508,220.983 148.508,220.983 C 148.508,220.983 147.648,220.841 147.505,220.554 C 147.362,220.268 147.935,217.835 149.081,216.547 C 150.226,215.259 152.588,219.482 152.517,220.626 C 152.445,221.772 150.655,220.914 150.655,220.914 L 150.512,232.867 L 148.436,232.724 z"
   id="path383"
   style="fill:#0071bc" />
	<path
   d="M 154.376,233.224 C 154.734,233.224 156.667,233.224 156.667,233.224 L 156.381,228.643 L 157.311,228.573 C 157.311,228.573 155.665,225.136 155.45,224.42 C 155.235,223.705 152.873,228.001 153.017,228.5 C 153.16,229.003 154.376,228.929 154.376,228.929 L 154.376,233.224 L 154.376,233.224 z"
   id="path385"
   style="fill:#0071bc" />
	<path
   d="M 205.842,217.621 C 205.842,217.621 252.653,209.604 283.432,216.476 L 283.432,225.35 L 206.128,227.496 L 205.842,217.621 z"
   id="path387"
   style="fill:#0071bc" />
	<path
   d="M 220.444,247.826 L 220.731,273.165 L 222.592,273.451 C 222.592,273.451 224.596,266.436 226.028,265.148 C 227.46,263.86 241.632,256.702 243.923,254.84 C 246.213,252.979 244.782,254.267 244.782,254.267 C 244.782,254.267 257.094,260.136 260.098,261.711 C 263.105,263.287 266.684,268.44 267.401,270.445 C 268.117,272.448 268.117,272.448 268.117,272.448 L 269.262,272.163 L 269.262,247.253 L 220.444,247.826 z"
   id="path389"
   style="fill:#0071bc" />
	<path
   d="M 238.769,286.193 C 238.769,286.193 246.785,283.759 248.789,281.61 C 250.794,279.464 253.371,281.181 254.801,281.754 C 256.234,282.327 267.4,288.483 267.4,288.483 L 268.974,289.056 L 268.687,322.984 L 228.46,323.555 L 228.173,298.647 C 228.173,298.647 229.175,293.781 231.609,291.347 C 234.043,288.913 238.338,286.334 238.769,286.193 z"
   id="path391"
   style="fill:#0071bc" />
	<path
   d="M 286.868,231.745 L 286.773,242.721 L 290.112,242.435 C 290.112,242.435 289.35,232.125 290.112,231.552 C 290.876,230.982 286.868,231.745 286.868,231.745 z"
   id="path393"
   style="fill:#0071bc" />
	<path
   d="M 294.6,242.243 L 298.226,242.338 L 298.036,234.513 C 298.036,234.513 299.849,230.886 301.852,230.315 C 303.857,229.742 305.001,232.508 305.766,233.94 C 306.529,235.372 306.243,242.338 306.243,242.338 L 309.68,242.435 L 309.775,237.091 L 312.543,237.377 C 312.543,237.377 309.775,230.314 308.63,229.835 C 307.485,229.359 295.746,229.742 295.746,229.742 C 295.746,229.742 293.742,231.362 292.788,231.362 C 291.833,231.362 294.41,234.418 294.601,235.181 C 294.79,235.945 294.6,242.243 294.6,242.243 z"
   id="path395"
   style="fill:#0071bc" />
	<path
   d="M 316.55,233.75 C 316.455,233.464 316.55,242.338 316.55,242.338 L 313.114,242.435 L 313.304,237.757 C 313.305,237.758 316.645,234.036 316.55,233.75 z"
   id="path397"
   style="fill:#0071bc" />
	<polygon
   points="321.322,226.116 318.458,229.169 319.699,229.55 320.08,242.816 322.275,242.816 322.181,231.84 322.181,229.263 323.803,228.977 321.322,226.116 "
   id="polygon399"
   style="fill:#0071bc" />
	<path
   d="M 286.296,243.96 L 321.799,243.389 C 321.799,243.389 342.318,245.68 343.177,246.633 C 344.037,247.589 344.418,248.924 344.418,248.924 L 285.437,248.541 L 285.152,244.058 L 286.296,243.96 z"
   id="path401"
   style="fill:#0071bc" />
	<path
   id="path403"
   style="fill:#0071bc" />
	<path
   d="M 415.996,176.963 L 415.996,172.526 C 415.996,172.526 422.152,166.655 422.725,166.655 C 423.298,166.655 428.452,170.236 429.024,171.38 C 429.597,172.526 429.74,177.107 429.74,177.107 L 415.996,176.963 z"
   id="path405"
   style="fill:#0071bc" />
	<path
   d="M 416.473,182.214 C 416.473,182.214 423.727,178.68 429.263,182.593 L 429.931,190.229 C 429.931,190.229 422.296,188.129 415.806,190.993 L 416.473,182.214 z"
   id="path407"
   style="fill:#0071bc" />
	<path
   d="M 416.378,197.101 C 416.473,196.813 424.49,192.52 430.216,196.911 L 432.029,235.946 L 414.946,235.946 L 416.378,197.101 z"
   id="path409"
   style="fill:#0071bc" />
	<path
   d="M 413.275,192.209 C 413.275,192.209 424.227,187.914 433.032,192.639 L 433.175,195.431 C 433.175,195.431 422.867,191.495 414.206,196.004 L 413.275,192.209 z"
   id="path411"
   style="fill:#0071bc" />
	<polygon
   points="412.202,236.516 434.964,236.66 434.964,240.452 412.274,240.097 412.13,236.732 412.202,236.516 "
   id="polygon413"
   style="fill:#0071bc" />
	<path
   d="M 414.374,243.675 C 414.47,243.389 424.395,238.616 432.316,243.865 L 433.938,275.361 L 437.087,275.934 L 436.897,280.705 L 433.651,281.754 C 433.651,281.754 426.112,276.41 414.278,281.659 L 410.841,279.942 L 410.938,276.316 L 414.182,276.411 L 414.374,243.675 z"
   id="path415"
   style="fill:#0071bc" />
	<path
   d="M 413.801,283.664 C 413.801,283.664 425.349,278.415 434.511,283.854 L 438.138,355.624 C 438.138,355.624 423.25,339.495 420.101,338.349 C 416.951,337.204 410.461,336.537 410.27,336.537 C 410.08,336.537 412.371,334.055 412.371,334.055 L 413.802,283.856 L 413.802,283.664 L 413.801,283.664 z"
   id="path417"
   style="fill:#0071bc" />
	<path
   d="M 372.977,221.7 L 372.834,220.484 L 375.269,220.484 C 375.269,220.484 375.053,216.762 375.124,216.476 C 375.196,216.189 379.563,212.395 379.563,212.395 L 379.92,206.67 L 380.564,206.74 L 380.994,212.611 C 380.994,212.611 385.861,214.758 385.933,219.626 C 386.004,224.492 385.933,220.197 385.933,220.197 L 387.937,220.413 L 388.008,221.271 C 388.009,221.271 374.123,221.413 372.977,221.7 z"
   id="path419"
   style="fill:#0071bc" />
	<path
   d="M 375.124,222.703 C 375.124,222.703 382.712,221.127 385.683,222.738 L 385.898,230.361 L 374.947,230.469 L 375.124,222.703 z"
   id="path421"
   style="fill:#0071bc" />
	<path
   d="M 372.69,231.221 C 372.69,231.221 387.435,230.576 388.008,231.256 L 388.044,232.4 L 385.897,233.941 L 386.935,264.253 L 374.123,264.503 L 374.91,236.265 L 374.981,234.726 L 373.658,233.366 L 372.905,233.009 L 372.69,231.221 z"
   id="path423"
   style="fill:#0071bc" />
	<path
   d="M 371.868,265.255 C 371.868,265.255 389.548,264.719 389.976,265.292 L 389.797,268.225 L 387.578,268.726 L 388.508,295.711 L 373.657,295.676 L 374.157,268.726 L 372.011,268.118 L 371.903,265.362"
   id="path425"
   style="fill:#0071bc" />
	<path
   d="M 178.643,301.583 C 179.287,301.727 184.654,294.854 187.732,295.57 C 190.81,296.285 196.965,302.298 196.965,302.298 C 196.965,302.298 197.538,309.313 196.965,309.097 C 196.393,308.884 190.309,305.231 190.094,305.735 C 189.879,306.234 187.803,307.238 185.728,307.668 C 183.653,308.098 181.004,311.963 181.004,311.963 L 181.004,321.723 L 204.029,321.267 L 203.074,243.962 L 168.907,244.343 L 144.856,247.016 L 146.193,322.412 L 178.015,321.783 L 178.643,301.583 z M 157.837,261.332 C 160.7,260.759 162.417,265.339 163.754,266.868 C 165.09,268.393 163.754,274.503 163.754,274.503 L 160.128,271.066 C 160.128,271.066 156.692,269.921 155.928,269.729 C 155.164,269.537 152.111,268.393 152.111,268.393 C 152.111,268.393 154.974,261.902 157.837,261.332 z M 164.469,309.598 C 164.469,309.598 163.324,307.238 161.677,306.307 C 160.031,305.375 158.241,306.019 156.381,305.231 C 154.52,304.446 152.873,302.156 152.873,302.156 C 152.873,302.156 155.164,298.218 157.883,296.787 C 157.883,296.787 162.751,298.862 163.967,301.941 C 165.185,305.019 164.469,309.598 164.469,309.598 z M 177.688,267.439 C 178.26,263.431 187.613,259.231 187.613,259.231 C 194.103,262.666 196.776,267.819 196.776,267.819 C 196.776,267.819 197.157,274.119 196.585,273.928 C 196.012,273.736 193.913,270.109 189.713,270.682 C 185.514,271.253 180.36,277.936 180.36,277.936 L 180.17,287.863 L 177.689,287.48 C 177.688,287.481 177.115,271.446 177.688,267.439 z"
   id="path427"
   style="fill:#0071bc" />
	<path
   d="M 209.564,237.519 L 210.423,312.533 L 214.289,313.106 L 216.436,243.819 L 273.698,243.675 L 274.844,288.769 L 276.991,292.491 C 276.991,292.491 277.277,306.377 276.847,307.379 C 276.417,308.381 278.709,311.674 278.709,311.674 L 279.855,311.532 L 279.998,237.089 L 209.564,237.519 z"
   id="path429"
   style="fill:#0071bc" />
	<polygon
   points="207.56,317.687 207.417,322.125 219.299,322.411 219.585,317.974 207.56,317.687 "
   id="polygon431"
   style="fill:#0071bc" />
	<polygon
   points="272.123,317.257 284.149,316.828 284.149,321.265 272.123,321.696 272.123,317.257 "
   id="polygon433"
   style="fill:#0071bc" />
	<polygon
   points="288.3,317.687 292.022,317.545 292.165,321.552 288.3,321.696 288.3,317.687 "
   id="polygon435"
   style="fill:#0071bc" />
	<polygon
   points="285.008,251.548 285.58,320.265 286.582,320.55 287.155,251.548 285.008,251.548 "
   id="polygon437"
   style="fill:#0071bc" />
	<polygon
   points="326.093,245.106 335.542,231.221 346.135,231.65 346.135,249.4 326.093,245.106 "
   id="polygon439"
   style="fill:#0071bc" />
	<polygon
   points="187.947,196.003 189.236,196.075 189.45,205.452 187.732,205.452 187.947,196.003 "
   id="polygon441"
   style="fill:#0071bc" />
	<path
   d="M 174.132,226.782 L 174.204,218.552 C 174.204,218.552 188.306,205.453 188.52,204.093 C 188.734,202.733 188.949,204.165 188.949,204.165 C 188.949,204.165 199.113,211.894 201.117,215.116 C 203.122,218.339 203.122,218.339 203.122,218.339 L 202.978,226.64 L 174.132,226.782 z"
   id="path443"
   style="fill:#0071bc" />
	<path
   d="M 202.12,232.151 L 202.048,230.36 L 203.265,230.36 L 203.051,227.426 L 173.632,227.496 C 173.632,227.496 171.055,228.069 170.196,229.143 L 174.132,232.649 L 174.204,243.244 L 203.194,243.172 L 203.123,232.219 L 202.12,232.151 z M 192.313,242.243 L 184.439,242.315 C 184.439,242.315 184.368,236.732 184.439,235.801 C 184.511,234.871 188.018,231.792 188.018,231.792 C 190.954,232.293 191.956,235.516 191.956,235.516 C 191.956,235.516 190.81,234.655 189.665,234.441 C 188.52,234.226 186.228,236.158 186.228,236.158 L 186.444,237.875 L 192.528,237.947 L 192.313,242.243 z"
   id="path445"
   style="fill:#0071bc" />
	<path
   d="M 144.141,233.688 L 146.575,228.894 L 148.329,233.189 L 148.257,232.651 L 156.632,233.01 L 156.846,236.159 L 161.213,240.347 L 161.391,242.851 L 163.002,243.96 L 163.073,245.392 L 155.414,247.039 L 145.036,247.791 L 145.358,234.69 C 145.358,234.69 144.212,234.012 144.141,233.688 z"
   id="path447"
   style="fill:#0071bc" />
	<path
   d="M 169.336,227.714 C 169.336,227.714 167.022,230.742 167.022,231.03 C 167.022,231.316 167.047,231.578 167.047,231.578 L 168.239,231.627 L 168.216,245.273 L 170.529,245.368 L 170.601,231.577 C 170.601,231.577 171.556,231.315 171.675,231.22 C 171.795,231.124 169.361,227.738 169.336,227.714 z"
   id="path449"
   style="fill:#0071bc" />
	<polygon
   points="346.135,250.832 347.424,320.121 341.698,320.265 342.842,253.553 343.702,251.834 346.135,250.832 "
   id="polygon451"
   style="fill:#0071bc" />
	<path
   d="M 340.838,256.558 L 341.269,252.98 L 322.229,251.548 L 323.087,321.122 L 327.669,321.122 L 327.382,292.778 L 340.838,292.922 L 340.553,288.769 L 327.096,288.054 L 326.81,264.576 C 326.81,264.576 332.249,259.708 333.251,259.566 C 334.253,259.422 334.253,256.415 334.253,256.415 L 340.838,256.558 z"
   id="path453"
   style="fill:#0071bc" />
	<path
   d="M 339.406,300.508 C 339.406,300.508 329.673,311.389 330.245,320.979 L 340.123,320.979 L 339.406,300.508 z"
   id="path455"
   style="fill:#0071bc" />
	<path
   d="M 296.031,321.552 L 314.068,320.694 L 313.925,308.382 C 313.925,308.382 307.339,305.375 305.622,304.945 C 303.903,304.516 296.315,310.243 296.03,311.962 C 295.744,313.679 296.031,321.552 296.031,321.552 z"
   id="path457"
   style="fill:#0071bc" />
	<path
   d="M 293.597,292.635 C 293.312,293.064 293.884,301.796 293.884,301.796 C 293.884,301.796 300.899,294.781 303.475,294.781 C 303.475,294.781 312.638,298.647 313.639,300.937 L 314.355,292.49 L 293.597,292.635 z"
   id="path459"
   style="fill:#0071bc" />
	<path
   d="M 293.884,265.578 C 293.884,265.578 301.757,258.993 303.905,258.707 C 306.052,258.419 312.781,263.431 313.353,264.861 C 313.926,266.295 314.069,256.129 314.069,256.129 L 292.882,255.985 L 293.884,265.578 z"
   id="path461"
   style="fill:#0071bc" />
	<rect
   x="340.41"
   y="217.811"
   width="2.0039999"
   height="17.464001"
   id="rect463"
   style="fill:#0071bc" />
	<rect
   x="334.10999"
   y="227.021"
   width="1.432"
   height="8.1120005"
   id="rect465"
   style="fill:#0071bc" />
	<path
   d="M 334.922,227.355 C 334.922,227.355 332.917,226.972 332.726,226.638 C 332.536,226.306 334.97,224.204 335.113,223.633 C 335.256,223.06 337.118,226.304 337.214,226.543 C 337.308,226.782 334.922,227.355 334.922,227.355 z"
   id="path467"
   style="fill:#0071bc" />
	<path
   d="M 341.316,218.623 C 341.316,218.623 339.312,218.24 339.121,217.906 C 338.931,217.572 341.363,215.474 341.506,214.901 C 341.65,214.328 343.512,217.572 343.607,217.811 C 343.702,218.05 341.316,218.623 341.316,218.623 z"
   id="path469"
   style="fill:#0071bc" />
	<path
   d="M 344.514,231.889 C 344.514,231.889 342.509,231.506 342.318,231.174 C 342.128,230.838 344.562,228.738 344.705,228.167 C 344.848,227.594 346.709,230.838 346.805,231.077 C 346.899,231.316 344.514,231.889 344.514,231.889 z"
   id="path471"
   style="fill:#0071bc" />
	<path
   d="M 224.529,410.023 L 243.539,358.105 C 243.267,358.512 232.539,381.085 218.819,410.023 L 224.529,410.023 z M 283.624,357.724 L 268.354,358.488 L 356.982,410.023 L 445.129,410.023 C 420.436,402.268 283.624,357.724 283.624,357.724 z M 202.311,358.105 L 17.986,410.023 L 104.387,410.023 L 219.108,359.251 L 202.311,358.105 z"
   id="path473"
   style="fill:#0071bc" />
	<path
   d="M 57.427,317.24 C 62.244,313.396 66.404,308.733 71.846,308.238 C 75.929,307.869 78.261,306.896 79.713,306.062 L 78.909,290.154 C 69.747,284.713 58.2,289.962 58.2,289.962 L 58.2,290.154 L 57.427,317.24 z"
   id="path475"
   style="fill:#0071bc" />
	<path
   d="M 371.046,334.438 C 371.136,334.799 371.118,334.471 371.02,333.763 C 370.999,334.034 371.003,334.267 371.046,334.438 z M 350.432,332.909 C 350.432,332.909 350.396,332.846 350.33,332.732 C 347.313,338.799 350.432,332.909 350.432,332.909 z M 238.959,356.197 L 238.867,356.197 C 238.65,358.975 238.959,356.197 238.959,356.197 z M 387.843,300.079 C 387.078,298.171 373.718,299.698 373.718,299.698 L 373.335,321.841 L 119.947,324.51 L 119.757,301.989 L 121.951,300.557 L 121.857,297.979 L 119.184,297.694 L 118.23,272.306 L 120.902,270.398 L 120.425,267.44 L 117.562,267.059 L 116.226,237.951 L 118.707,235.849 L 118.898,233.082 L 116.606,233.37 C 116.606,233.37 116.701,232.7 116.606,232.034 C 116.511,231.364 116.701,231.554 116.606,231.078 C 116.511,230.602 116.701,224.873 116.701,224.873 L 118.992,224.111 L 118.516,222.775 L 116.798,222.585 L 116.702,221.917 C 116.035,219.054 110.976,214.761 110.976,214.761 C 106.014,218.003 105.345,223.062 105.345,223.062 L 103.341,223.827 L 103.628,226.211 L 105.822,226.784 L 106.109,233.179 L 104.104,233.56 L 104.2,235.47 L 105.918,238.143 L 105.249,267.442 L 103.055,267.347 L 102.959,270.496 L 104.772,271.737 L 104.391,298.172 L 102.482,298.269 L 102.578,300.367 L 104.487,302.277 L 104.2,324.99 L 105.202,325.707 L 107.034,327.436 C 110.289,332.727 112.696,339.346 111.838,346.84 C 112.218,346.259 112.407,343.979 112.216,342.646 C 112.026,341.31 113.743,340.166 114.126,339.592 C 114.508,339.021 113.935,336.919 113.553,335.394 C 113.171,333.868 113.171,331.766 113.171,330.241 C 113.171,329.008 114.668,327.772 115.847,326.94 L 117.81,326.83 C 118.821,327.802 119.852,329.858 119.852,329.858 L 120.234,332.338 L 120.998,336.155 L 120.426,343.028 L 122.335,341.309 L 124.052,339.208 C 124.052,339.208 123.48,334.628 123.288,333.674 C 123.098,332.72 123.67,329.476 123.67,329.476 C 123.67,329.476 125.58,326.994 126.152,326.803 C 126.725,326.613 129.015,326.613 129.969,326.803 C 130.924,326.993 132.069,330.43 132.069,330.43 L 131.878,336.728 L 131.688,344.555 L 137.224,344.174 C 137.224,344.174 137.414,341.499 137.414,340.164 C 137.414,338.827 137.605,335.583 137.987,334.055 C 138.368,332.53 141.232,330.811 141.996,331.001 C 142.759,331.193 144.858,333.674 145.432,333.293 C 146.004,332.91 147.913,330.811 149.632,333.483 C 151.349,336.154 150.204,338.827 150.204,338.827 L 153.449,339.019 C 153.449,339.019 153.831,336.917 156.311,334.627 C 158.793,332.336 160.702,335.2 160.702,335.2 L 162.23,341.881 L 159.747,352.38 L 163.375,357.532 L 170.437,357.342 C 170.437,357.342 170.246,344.362 170.627,341.308 C 171.008,338.254 172.154,333.1 175.208,335.201 C 178.262,337.301 177.88,343.408 177.88,343.408 L 178.453,357.723 L 215.292,356.005 L 238.869,356.197 C 238.893,355.886 238.923,355.511 238.961,355.051 C 239.343,350.47 244.688,351.234 244.688,351.234 C 248.887,351.234 250.032,355.814 250.032,355.814 L 288.208,353.907 L 288.208,357.724 L 312.258,356.579 C 312.258,356.579 311.112,351.616 311.876,340.162 C 312.641,328.71 319.13,337.108 319.13,337.108 C 320.275,329.473 324.474,333.291 324.474,333.291 C 326.001,327.184 339.364,332.908 339.364,332.908 C 343.61,321.938 349.496,331.307 350.333,332.731 C 350.48,332.436 350.637,332.12 350.815,331.764 C 354.632,324.127 358.45,329.473 358.832,327.564 C 359.215,325.656 366.85,325.274 368.376,325.274 C 369.541,325.274 370.706,331.494 371.022,333.762 C 371.189,331.602 373.296,326.631 376.01,325.274 C 379.065,323.747 380.592,333.291 380.592,333.291 L 384.028,331.384 C 384.028,331.384 385.555,324.128 386.7,322.984 C 387.846,321.84 388.991,321.077 388.991,321.077 C 388.991,321.077 388.606,301.988 387.843,300.079 z"
   id="path477"
   style="fill:#0071bc" />
</g>
<g
   id="g479"
   transform="translate(0,-5.22573e-6)">
	<path
   d="M 135.594,97.641 C 135.594,97.641 141.352,98.867 142.21,97.029 C 143.067,95.191 141.352,91.025 141.352,91.025 C 141.352,91.025 141.842,86.37 142.7,85.144 C 143.557,83.918 145.763,80.121 145.273,77.058 C 144.783,73.995 152.379,63.335 152.011,61.007 L 152.216,60.028 L 153.114,60.191 L 153.196,62.478 C 153.196,62.478 154.503,64.03 154.666,65.582 C 154.83,67.135 155.402,68.114 155.483,68.686 C 155.565,69.257 154.911,77.017 154.911,77.262 C 154.911,77.506 163.488,87.962 163.569,88.697 C 163.651,89.432 163.651,89.842 163.651,89.842 C 163.651,89.842 165.693,90.413 166.591,90.004 C 167.49,89.597 168.715,88.779 168.715,88.779 L 168.551,88.126 C 168.551,88.126 166.183,87.881 165.529,87.473 C 164.875,87.064 159.403,78.652 159.403,78.652 C 159.403,78.652 158.913,70.402 159.729,69.176 C 160.546,67.951 161.2,66.236 161.118,65.582 C 161.036,64.929 162.016,61.825 162.261,61.662 C 162.506,61.499 170.511,59.946 171.164,61.09 C 171.164,61.09 170.755,75.058 170.837,76.2 C 170.919,77.345 171.327,79.386 171.327,79.386 C 171.327,79.386 170.837,95.559 170.51,96.539 C 170.184,97.519 172.389,95.559 172.552,96.458 C 172.715,97.355 177.371,95.068 177.208,94.497 C 177.044,93.925 173.94,91.802 173.94,91.802 L 174.022,80.121 C 174.022,80.121 177.289,73.75 177.371,70.238 C 177.453,66.725 179.903,65.501 179.903,65.501 L 182.517,59.701 L 183.742,59.456 C 183.742,59.456 186.356,55.127 186.519,54.474 C 186.682,53.821 190.685,54.311 192.073,53.249 C 193.462,52.187 198.526,50.635 200.731,44.917 C 202.937,39.2 202.609,35.933 203.671,33.809 C 204.733,31.685 206.53,27.928 206.367,27.193 C 206.203,26.458 212.493,22.047 212.575,21.23 C 212.657,20.413 214.535,21.148 214.944,20.495 C 215.353,19.842 216.986,17.391 216.986,17.146 C 216.986,16.901 214.781,13.715 214.291,13.634 C 213.801,13.552 207.675,15.676 207.43,16.166 C 207.185,16.656 202.202,16.492 201.222,17.717 C 200.242,18.943 199.18,16.574 199.18,16.574 L 197.465,16.901 L 198.445,19.188 L 199.507,19.678 L 199.344,21.148 C 199.344,21.148 197.955,25.069 197.22,30.133 C 196.485,35.197 193.381,40.506 189.95,41.078 C 186.52,41.65 184.477,37.81 183.497,36.912 C 182.517,36.014 182.926,34.624 182.926,34.624 C 182.926,34.624 179.169,28.907 179.005,28.907 C 178.841,28.907 178.76,27.763 178.76,27.763 L 177.208,27.518 L 176.963,29.07 C 176.963,29.07 169.693,30.621 167.897,32.419 C 166.1,34.216 161.281,33.236 161.281,33.236 L 161.363,31.521 L 159.239,31.358 L 159.157,32.174 L 159.728,33.563 L 158.34,34.053 C 158.34,34.053 153.929,39.934 151.887,43.528 C 149.845,47.122 146.741,51.614 146.741,51.614 L 145.516,54.963 L 144.863,68.195 C 144.863,68.195 144.618,73.749 143.965,74.974 C 143.311,76.199 141.515,79.221 141.515,79.221 C 141.515,79.221 141.841,83.142 141.596,84.204 C 141.351,85.266 139.8,91.064 139.472,91.555 C 139.147,92.046 135.716,96.211 135.594,97.641 z"
   id="path481"
   style="fill:#0071bc" />
	<path
   d="M 51.343,67.958 L 88.589,25.812 L 122.895,64.365 L 101.332,65.344 C 101.332,65.344 74.867,63.057 68.66,66.324 C 62.453,69.591 51.343,67.958 51.343,67.958 z"
   id="path483"
   style="fill:#0071bc" />
	<path
   d="M 214.13,60.034 C 214.13,60.034 237.653,61.995 241.329,59.789 C 245.005,57.584 272.695,0 272.695,0 L 214.13,60.034 z"
   id="path485"
   style="fill:#0071bc" />
	<polygon
   points="273.92,1.225 245.495,59.3 330.278,57.094 273.92,1.225 "
   id="polygon487"
   style="fill:#0071bc" />
	<polygon
   points="317.046,40.921 329.788,53.174 344.001,19.113 342.776,18.868 317.046,40.921 "
   id="polygon489"
   style="fill:#0071bc" />
	<path
   d="M 345.962,19.603 C 345.472,20.338 331.015,56.359 331.015,56.359 C 331.015,56.359 370.956,55.379 376.347,56.114 C 381.738,56.848 384.433,55.624 384.433,55.624 L 387.619,55.379 L 345.962,19.603 z"
   id="path491"
   style="fill:#0071bc" />
</g>
</svg>